<?xml version="1.0" standalone="no"?>
<!DOCTYPE svg PUBLIC "-//W3C//DTD SVG 20010904//EN"
 "http://www.w3.org/TR/2001/REC-SVG-20010904/DTD/svg10.dtd">
<svg version="1.0" xmlns="http://www.w3.org/2000/svg"
 width="959.000000pt" height="959.000000pt" viewBox="0 0 959.000000 959.000000"
 preserveAspectRatio="xMidYMid meet">
<metadata>
Created by potrace 1.11, written by Peter Selinger 2001-2013
</metadata>
<g transform="translate(0.000000,959.000000) scale(0.100000,-0.100000)"
fill="#000000" stroke="none">
<path d="M0 9364 c0 -188 3 -232 16 -260 9 -19 14 -37 11 -41 -4 -3 -2 -14 4
-24 7 -14 5 -21 -11 -31 -24 -15 -26 -28 -5 -28 8 0 15 -8 15 -18 0 -10 5 -23
11 -29 8 -8 8 -13 0 -17 -18 -11 -13 -26 9 -26 13 0 17 5 14 14 -3 9 0 13 8
12 72 -15 88 -20 88 -31 0 -7 7 -18 15 -25 12 -10 13 -16 3 -28 -11 -13 -9
-14 12 -7 34 10 33 8 10 48 -14 24 -19 44 -15 58 5 14 4 19 -4 15 -6 -4 -11
-13 -11 -20 0 -22 -52 -6 -86 27 -27 25 -30 32 -20 53 22 47 50 39 63 -18 6
-29 17 -36 28 -18 4 6 10 8 15 5 5 -3 13 3 19 12 9 16 13 15 35 -12 14 -16 25
-25 26 -19 0 13 93 36 113 28 11 -4 14 6 12 48 -1 29 -6 61 -10 70 -10 25 -2
52 18 56 11 2 17 -3 18 -15 0 -14 2 -15 6 -3 7 17 33 39 47 40 4 0 5 -8 1 -17
-17 -41 -16 -49 6 -50 29 -2 31 -6 20 -34 -5 -13 -10 -18 -10 -10 -2 25 -31
-9 -31 -36 0 -56 30 -74 64 -40 20 20 36 14 36 -14 0 -21 15 -26 25 -8 4 5 18
14 32 20 23 8 23 10 9 31 -23 32 -20 58 5 58 14 0 19 -5 16 -14 -3 -8 1 -20 9
-26 18 -16 18 -25 -2 -45 -12 -12 -14 -19 -6 -27 8 -8 13 -6 19 8 6 14 19 19
51 21 23 1 42 0 42 -1 0 -2 -6 -16 -14 -30 l-13 -27 -8 23 c-7 23 -8 23 -12 2
-3 -16 -9 -20 -24 -17 -29 8 -24 -17 12 -54 34 -37 41 -40 33 -15 -4 13 -2 12
7 -3 6 -11 14 -22 16 -24 2 -3 23 -6 48 -7 36 -2 45 0 45 14 0 13 -3 13 -12 4
-10 -10 -15 -6 -24 20 l-12 33 -11 -29 c-16 -41 -38 -20 -23 22 6 17 6 34 2
38 -5 5 -1 20 10 34 15 20 20 22 34 11 9 -7 13 -18 9 -24 -7 -12 14 -1 39 21
10 8 24 12 33 9 16 -7 20 10 16 71 -2 26 1 32 18 32 12 0 21 -6 21 -15 0 -7 7
-18 15 -22 21 -12 6 -99 -17 -95 -8 1 -21 -5 -28 -13 -11 -13 -11 -19 3 -32
15 -15 15 -19 -1 -45 -12 -21 -13 -31 -4 -40 8 -8 14 -5 22 16 7 20 16 27 29
23 15 -4 17 1 15 24 -3 22 0 27 12 22 8 -3 34 4 57 15 23 12 50 23 60 26 22 7
25 76 2 76 -8 0 -15 6 -15 13 0 7 -9 18 -20 25 -23 14 -25 5 -5 -22 20 -26 19
-62 -1 -70 -26 -10 -34 -7 -34 13 0 11 -4 23 -10 26 -5 3 -10 19 -10 36 0 16
-4 29 -10 29 -5 0 -10 6 -10 14 0 7 -6 25 -13 39 -11 22 -15 23 -23 9 -20 -30
-37 -3 -32 50 5 49 5 50 -28 64 -22 9 -34 21 -34 34 0 10 -5 22 -11 26 -8 4
-7 9 2 15 18 11 42 11 35 0 -3 -5 1 -14 9 -21 13 -11 15 -8 15 14 0 21 5 26
25 26 22 0 25 -3 19 -24 -9 -37 3 -65 25 -59 18 4 18 8 5 38 -12 29 -12 36 1
49 17 17 20 30 5 21 -6 -4 -10 5 -10 19 0 19 5 26 20 26 14 0 20 -7 20 -22 0
-13 3 -33 6 -45 5 -19 10 -21 25 -12 10 5 19 17 19 26 0 9 7 24 15 33 14 15
14 18 0 30 -8 7 -15 21 -15 32 0 11 -5 29 -11 40 -14 26 2 43 39 43 18 0 28 6
30 18 3 16 -3 18 -43 16 -39 -2 -46 -6 -42 -21 5 -19 -8 -25 -18 -8 -10 17
-26 0 -20 -21 4 -12 1 -21 -9 -25 -12 -5 -13 -9 -3 -25 10 -16 9 -21 -3 -29
-19 -12 -21 -8 -22 29 -1 17 -8 37 -16 43 -8 7 -18 22 -23 35 -6 16 -17 23
-34 23 -24 0 -34 -13 -17 -24 14 -8 12 -66 -2 -66 -6 0 -22 20 -34 45 l-22 45
-405 0 -405 0 0 -226z m260 27 c0 -14 -18 -23 -31 -15 -8 4 -7 9 2 15 18 11
29 11 29 0z m240 0 c0 -14 -18 -23 -30 -16 -6 4 -8 11 -5 16 8 12 35 12 35 0z
m201 -16 c0 -6 -10 -17 -22 -25 -13 -8 -21 -10 -18 -5 3 6 9 18 12 28 7 19 29
20 28 2z m-121 -15 c0 -5 -7 -10 -16 -10 -8 0 -12 5 -9 10 3 6 10 10 16 10 5
0 9 -4 9 -10z m58 -58 c2 -7 -3 -12 -12 -12 -9 0 -16 7 -16 16 0 17 22 14 28
-4z m42 8 c0 -5 -4 -10 -10 -10 -5 0 -10 5 -10 10 0 6 5 10 10 10 6 0 10 -4
10 -10z m-495 -20 c3 -5 -3 -10 -14 -10 -12 0 -21 5 -21 10 0 6 6 10 14 10 8
0 18 -4 21 -10z m595 6 c0 -3 -4 -8 -10 -11 -5 -3 -10 -1 -10 4 0 6 5 11 10
11 6 0 10 -2 10 -4z m-472 -24 c2 -7 -3 -12 -10 -12 -8 0 -15 7 -15 15 0 18
19 15 25 -3z m377 -25 c0 -39 -19 -38 -23 2 -3 24 0 32 10 29 7 -3 13 -17 13
-31z m205 5 c0 -4 -7 -17 -15 -29 -12 -17 -13 -28 -5 -49 8 -21 7 -31 -6 -45
-17 -19 -70 -27 -59 -9 4 6 -3 6 -21 0 -32 -13 -34 -11 -44 34 -8 35 -7 36 20
36 16 0 30 -5 32 -12 7 -19 28 2 28 28 0 17 -5 24 -20 24 -11 0 -20 6 -20 13
0 8 19 13 55 14 30 1 55 -1 55 -5z m-500 -64 c0 -5 -7 -8 -15 -8 -17 0 -18 2
-9 25 5 13 8 14 15 3 5 -7 9 -16 9 -20z m-146 7 c3 -8 -2 -19 -13 -24 -13 -8
-22 -5 -35 11 -14 15 -14 20 -4 15 8 -3 21 -1 29 4 18 11 16 11 23 -6z m426
-31 c0 -8 -4 -12 -10 -9 -5 3 -10 10 -10 16 0 5 5 9 10 9 6 0 10 -7 10 -16z
m10 -44 c0 -5 -5 -10 -11 -10 -5 0 -7 5 -4 10 3 6 8 10 11 10 2 0 4 -4 4 -10z
m-365 -10 c3 -5 -1 -10 -9 -10 -9 0 -16 5 -16 10 0 6 4 10 9 10 6 0 13 -4 16
-10z m-81 -33 c7 -18 6 -31 -1 -38 -18 -18 -33 -1 -33 37 0 42 20 42 34 1z
m306 7 c0 -36 -17 -64 -35 -58 -22 9 -18 24 5 24 23 0 27 29 8 48 -9 9 -8 12
5 12 12 0 17 -8 17 -26z m155 -15 c0 -7 -8 -15 -17 -17 -18 -3 -25 18 -11 32
10 10 28 1 28 -15z m-375 -28 c0 -17 -5 -33 -11 -36 -14 -9 -18 -4 -25 33 -6
28 -4 32 15 32 17 0 21 -6 21 -29z m532 7 c-7 -7 -12 -8 -12 -2 0 14 12 26 19
19 2 -3 -1 -11 -7 -17z m-492 -28 c0 -5 -4 -10 -10 -10 -5 0 -10 5 -10 10 0 6
5 10 10 10 6 0 10 -4 10 -10z"/>
<path d="M2721 9576 c-9 -11 -9 -15 0 -18 9 -3 8 -13 -4 -38 -16 -36 -26 -76
-32 -122 -2 -15 -15 -55 -29 -90 -14 -35 -28 -76 -31 -93 -6 -27 -5 -28 6 -10
7 11 19 26 27 34 19 20 32 58 26 76 -4 9 0 15 9 15 17 0 27 21 27 56 0 13 4
32 10 42 5 9 14 29 20 45 10 29 50 39 50 12 0 -18 29 -8 50 18 20 24 53 13 45
-14 -4 -13 0 -21 12 -26 10 -4 21 -11 25 -17 9 -13 -42 -39 -56 -27 -19 14
-86 12 -86 -3 0 -9 17 -15 50 -18 28 -3 52 -7 55 -9 2 -3 7 -24 11 -47 5 -34
4 -42 -9 -42 -8 0 -18 11 -21 25 -4 14 -11 25 -16 25 -6 0 -10 6 -10 14 0 19
-43 15 -64 -6 -10 -10 -14 -29 -12 -54 3 -31 8 -40 29 -45 20 -5 27 -3 32 15
4 13 8 16 12 9 2 -7 13 -13 23 -13 10 0 20 -6 22 -14 5 -24 72 4 76 32 2 13
10 22 22 22 11 0 20 10 24 26 4 16 12 24 20 21 8 -3 18 8 26 29 8 19 20 34 28
34 8 0 12 -6 9 -12 -29 -81 -30 -87 -18 -102 20 -23 41 -19 41 7 0 13 5 28 12
35 9 9 9 12 0 12 -10 0 -10 5 -2 20 11 21 12 20 45 -7 18 -15 32 -34 30 -40
-5 -16 -5 -16 51 -2 37 10 44 15 39 30 -5 16 -1 19 30 19 24 0 38 5 42 17 4 9
15 25 25 35 25 25 24 51 -3 43 -18 -6 -19 -4 -10 14 6 12 15 29 20 40 6 10 7
28 4 40 -6 23 -38 29 -47 9 -5 -10 -7 -10 -12 0 -4 8 -38 12 -120 12 -95 0
-114 -3 -114 -15 0 -8 -7 -15 -16 -15 -9 0 -14 -6 -11 -12 2 -7 11 -12 21 -10
18 3 22 -13 6 -23 -5 -3 -10 -17 -10 -31 0 -38 -19 -28 -42 22 -14 33 -17 49
-9 57 18 18 12 27 -19 27 -20 0 -30 -5 -30 -15 0 -8 -4 -15 -9 -15 -5 0 -19
-11 -32 -25 -27 -28 -44 -32 -53 -10 -6 17 19 45 40 45 8 0 14 4 14 8 0 5 -20
10 -44 10 -37 2 -48 -2 -65 -24 -12 -15 -27 -24 -35 -21 -7 3 -19 0 -25 -6
-18 -18 -35 6 -22 32 10 19 9 21 -12 21 -14 0 -30 -6 -36 -14z m554 -63 c1
-25 -4 -37 -22 -49 -14 -8 -28 -13 -31 -9 -4 3 0 10 7 15 9 5 14 24 13 50 -1
23 1 47 4 52 10 16 28 -22 29 -59z m-55 38 c0 -12 -20 -25 -27 -18 -7 7 6 27
18 27 5 0 9 -4 9 -9z m-216 -43 c5 -22 -13 -78 -25 -78 -4 0 -14 11 -22 24
-12 17 -13 26 -4 35 6 6 8 11 4 11 -12 0 17 29 29 30 7 0 14 -10 18 -22z m366
-63 c10 -12 10 -15 -4 -15 -9 0 -16 7 -16 15 0 8 2 15 4 15 2 0 9 -7 16 -15z"/>
<path d="M2800 9580 c0 -5 9 -10 20 -10 11 0 20 5 20 10 0 6 -9 10 -20 10 -11
0 -20 -4 -20 -10z"/>
<path d="M3449 9576 c9 -10 9 -20 0 -40 -7 -14 -9 -29 -4 -34 4 -4 10 -1 12 6
3 6 9 12 14 12 6 0 8 -4 5 -8 -8 -13 11 -35 23 -28 15 10 14 43 -1 49 -13 5 1
7 52 9 19 0 25 6 25 24 0 28 -3 29 -32 9 -19 -13 -22 -13 -27 0 -3 10 -19 15
-42 15 -30 0 -34 -2 -25 -14z"/>
<path d="M3655 9580 c4 -6 11 -8 16 -5 5 4 9 1 9 -4 0 -6 -5 -11 -12 -11 -6 0
-9 -2 -7 -5 3 -2 15 -2 27 2 34 8 27 33 -9 33 -18 0 -28 -4 -24 -10z"/>
<path d="M3732 9561 c-15 -34 -17 -56 -6 -90 6 -21 5 -23 -11 -17 -15 5 -16 4
-5 -9 11 -13 15 -12 36 12 14 17 22 35 18 45 -3 10 -1 18 5 18 13 0 42 55 34
64 -4 3 -18 6 -32 6 -19 0 -30 -8 -39 -29z"/>
<path d="M3858 9550 c20 -46 35 -50 58 -15 l17 26 28 -27 29 -28 25 24 c19 18
24 20 19 7 -8 -21 9 -22 26 -2 7 8 28 15 46 15 29 0 36 -5 54 -39 11 -22 25
-43 31 -46 20 -13 23 5 6 34 -34 57 -17 83 34 52 l33 -20 -27 -10 c-38 -15
-34 -33 6 -29 23 2 31 8 29 19 -3 21 15 69 25 69 5 0 16 -12 27 -26 15 -22 16
-28 5 -35 -11 -7 -11 -9 2 -9 9 0 19 9 22 20 8 31 34 35 57 9 23 -29 25 -48 5
-55 -8 -4 -15 -10 -15 -15 0 -5 7 -9 15 -9 8 0 15 4 15 8 0 5 14 9 30 9 41 0
55 15 41 42 -7 12 -8 21 -3 21 5 0 19 9 32 20 23 20 23 20 37 1 15 -23 8 -47
-18 -61 -20 -11 -15 -44 6 -36 7 2 18 -1 24 -7 9 -9 13 -6 17 11 5 17 11 21
29 16 17 -4 29 0 41 15 10 11 21 18 25 16 4 -3 12 2 19 10 19 23 40 18 40 -9
0 -32 17 -76 29 -76 5 0 11 8 14 19 2 10 18 25 34 33 27 14 32 13 50 -1 11 -9
23 -24 26 -33 9 -24 33 -23 40 2 3 11 10 20 17 20 7 0 14 -9 17 -20 3 -11 11
-20 19 -20 7 0 18 -8 23 -19 6 -10 19 -21 29 -23 15 -4 18 -1 15 13 -4 14 0
19 15 19 20 0 35 -21 36 -50 1 -21 46 -26 46 -6 0 9 8 16 20 16 13 0 18 -5 14
-15 -4 -10 0 -15 15 -15 12 0 24 -7 27 -15 4 -8 11 -12 16 -9 19 12 82 13 116
2 38 -12 50 -5 32 17 -11 13 -10 18 6 30 29 22 73 18 106 -10 31 -26 58 -33
58 -14 0 6 -7 9 -15 5 -9 -3 -15 0 -15 9 0 8 4 15 9 15 5 0 11 9 14 20 6 25
27 26 27 2 0 -11 9 -27 19 -36 31 -28 77 -13 107 35 13 21 29 39 34 39 15 0
12 -17 -5 -24 -14 -5 -22 -46 -10 -46 6 0 67 41 75 51 3 3 13 9 24 12 16 7 18
3 12 -28 -5 -27 -4 -35 8 -35 9 0 20 9 26 20 12 22 45 27 56 9 4 -8 9 -7 15 2
7 11 9 10 9 -3 0 -9 -4 -20 -10 -23 -5 -3 -10 -13 -10 -21 0 -26 33 -11 57 25
18 27 24 30 29 17 3 -9 10 -13 16 -10 5 3 8 0 7 -7 -3 -21 12 -49 26 -49 22 0
29 22 11 32 -20 11 -21 38 -1 38 8 0 34 -18 57 -40 24 -22 46 -40 49 -40 6 0
19 -30 23 -52 0 -5 4 -8 9 -8 4 0 12 0 18 0 5 0 8 4 5 9 -3 5 1 14 9 21 12 10
16 8 24 -11 9 -21 10 -22 10 -4 0 11 -4 39 -8 63 -5 23 -5 42 0 42 14 0 49
-52 49 -74 0 -45 12 -67 34 -64 12 2 20 10 18 18 -2 7 2 24 9 36 12 22 12 22
33 3 11 -11 21 -26 22 -32 0 -7 10 -30 22 -52 l21 -40 -1 42 c-1 30 -5 40 -15
36 -8 -3 -13 2 -13 16 0 12 6 21 15 21 8 0 15 4 15 9 0 5 -9 7 -20 4 -14 -4
-19 -1 -16 8 2 8 7 27 11 43 l6 29 23 -34 c31 -48 46 -88 49 -134 1 -21 8 -40
15 -43 8 -2 11 5 10 19 -2 18 2 24 17 24 13 0 19 5 16 15 -4 17 -9 48 -10 68
-1 8 -8 11 -20 7 -24 -7 -35 9 -22 32 8 14 10 15 11 3 0 -12 2 -12 8 -2 11 17
39 5 45 -20 4 -14 11 -18 25 -14 12 4 25 -1 37 -14 24 -27 33 -25 66 11 26 30
28 30 38 11 6 -12 11 -30 11 -41 0 -13 5 -19 14 -15 8 3 31 -16 56 -45 23 -28
48 -51 56 -51 8 0 14 -7 14 -15 0 -8 7 -15 16 -15 11 0 14 -6 8 -22 -6 -20 -5
-21 10 -9 9 8 16 28 16 47 0 40 17 45 26 9 3 -14 15 -30 26 -36 13 -7 17 -16
13 -30 -4 -10 -2 -19 3 -19 17 0 34 29 29 49 -3 11 1 28 9 38 13 17 14 17 19
-2 4 -11 15 -38 25 -60 16 -35 19 -37 25 -20 3 12 15 26 26 33 17 11 24 7 58
-29 38 -41 68 -46 56 -9 -3 9 -1 30 5 46 10 26 13 27 21 11 6 -9 9 -32 7 -50
-2 -27 1 -33 20 -35 18 -3 22 1 22 26 0 16 9 37 20 47 20 18 21 18 35 -1 11
-15 15 -16 16 -4 1 8 3 22 4 30 1 8 3 25 4 38 1 25 23 29 41 7 7 -9 20 -15 29
-13 9 1 30 -11 47 -27 75 -73 93 -85 121 -84 23 1 24 2 6 6 -30 6 -29 25 2 40
14 6 25 7 25 2 0 -5 6 -9 13 -9 7 0 18 -9 25 -20 7 -11 20 -20 30 -20 9 -1 31
-12 47 -26 17 -15 23 -23 15 -19 -12 6 -11 4 2 -10 13 -14 23 -16 54 -9 40 10
59 34 26 34 -18 0 -20 6 -18 64 1 73 11 73 45 1 11 -24 30 -49 41 -55 17 -9
22 -7 29 12 5 15 4 27 -5 35 -12 13 -9 43 5 43 8 0 34 -58 35 -81 2 -27 44
-61 79 -64 26 -2 34 -8 41 -33 10 -37 28 -45 60 -30 31 13 25 29 -30 84 -33
32 -49 41 -65 37 -15 -4 -27 0 -35 12 -18 24 -18 49 -1 38 6 -4 19 -6 29 -5 9
2 23 -6 31 -18 8 -11 18 -20 23 -18 12 3 58 -41 73 -69 6 -13 18 -23 25 -23
14 0 106 -93 106 -108 0 -6 -5 -12 -12 -14 -19 -7 -1 -38 22 -38 15 0 20 7 20
25 0 32 39 36 47 5 3 -11 12 -20 19 -20 8 0 14 -4 14 -10 0 -5 9 -10 20 -10
12 0 17 -5 14 -13 -2 -7 2 -21 10 -32 13 -17 18 -18 36 -7 16 10 25 10 35 2 8
-7 16 -7 19 -2 3 6 22 12 42 14 28 3 43 -1 65 -21 16 -14 29 -33 29 -43 0 -10
6 -18 14 -18 8 0 17 -11 20 -25 4 -14 13 -25 21 -25 19 0 19 24 1 43 -9 9 -11
19 -5 28 7 11 12 9 26 -11 27 -39 66 -71 79 -66 6 2 17 -1 23 -7 7 -7 28 -12
48 -12 43 0 52 -16 25 -43 -23 -23 -15 -44 20 -49 28 -4 52 -33 39 -46 -5 -5
-7 -16 -4 -24 3 -8 -5 -25 -17 -39 -13 -13 -19 -24 -14 -24 6 0 23 13 38 29
16 16 35 27 42 24 8 -3 12 -9 9 -13 -3 -5 -1 -11 4 -15 6 -3 7 -13 4 -23 -4
-13 -2 -13 10 3 8 11 13 23 11 27 -3 4 1 5 9 2 8 -3 20 2 27 10 18 22 30 10
25 -24 -3 -17 -7 -43 -10 -60 -3 -21 1 -35 16 -49 13 -12 17 -21 10 -26 -6 -3
-11 -17 -11 -30 0 -14 -14 -38 -32 -57 -39 -39 -40 -73 -1 -81 32 -6 65 2 57
14 -13 22 -11 119 2 130 19 16 25 9 39 -53 10 -45 15 -53 34 -51 11 2 21 -2
21 -7 0 -6 -7 -10 -15 -10 -8 0 -15 -4 -15 -10 0 -5 10 -9 23 -7 18 2 23 -4
25 -27 5 -43 -13 -54 -32 -18 -8 16 -25 32 -38 35 -29 8 -31 5 -18 -28 7 -19
7 -31 0 -40 -7 -9 -6 -21 4 -41 13 -24 16 -25 22 -11 6 17 8 17 27 0 19 -18
20 -17 8 4 -6 12 -7 24 -3 27 16 10 30 -10 37 -54 4 -25 10 -49 13 -55 14 -22
12 -55 -2 -55 -10 0 -13 -6 -10 -15 4 -8 2 -15 -4 -15 -6 0 -12 6 -15 13 -4
10 -7 10 -18 0 -18 -18 -49 -16 -70 3 -10 9 -23 13 -28 9 -20 -12 -11 -22 29
-35 23 -8 45 -21 50 -29 5 -9 10 -12 10 -7 0 5 6 3 13 -3 11 -8 12 -22 5 -58
-5 -27 -11 -64 -12 -83 -1 -30 -5 -35 -24 -33 -13 2 -22 -3 -22 -11 0 -19 -84
-4 -120 22 -33 25 -39 20 -66 -48 -9 -25 -21 -49 -26 -54 -4 -6 -8 -20 -8 -33
0 -16 -6 -23 -18 -23 -11 0 -29 -9 -42 -20 -27 -23 -50 -26 -50 -6 0 13 -39
30 -48 21 -2 -2 8 -15 22 -28 27 -25 34 -47 16 -47 -6 0 -16 -12 -22 -27 l-12
-28 -4 28 c-2 15 -9 27 -17 27 -7 0 -15 7 -19 15 -4 12 -9 13 -24 4 -27 -17
-76 1 -80 29 -4 27 -19 28 -27 2 -7 -23 -25 -27 -25 -5 0 8 -4 15 -10 15 -5 0
-10 -7 -10 -15 0 -8 -7 -15 -15 -15 -8 0 -15 5 -15 11 0 6 -9 8 -21 4 -16 -5
-20 -3 -18 12 5 25 -8 43 -31 43 -29 0 -67 41 -94 101 -21 49 -27 55 -57 57
-39 3 -87 41 -67 53 8 5 4 11 -14 18 -15 5 -31 18 -36 28 -6 10 -19 18 -29 18
-13 0 -18 7 -16 28 1 20 -3 27 -16 27 -10 0 -24 7 -31 15 -7 8 -21 15 -32 15
-10 0 -16 5 -13 10 3 6 2 10 -4 10 -5 0 -24 13 -42 30 -18 16 -46 32 -61 36
-16 3 -32 12 -35 20 -3 8 -13 14 -22 14 -9 0 -29 7 -45 15 -33 17 -92 34 -146
42 -19 2 -57 13 -85 23 -49 18 -204 50 -244 50 -12 0 -21 4 -21 8 0 5 -24 5
-52 1 -29 -3 -58 -3 -64 2 -15 12 -235 9 -251 -3 -7 -6 -19 -6 -30 0 -10 6
-97 11 -193 12 -226 3 -210 3 -250 -3 -19 -3 -81 -8 -137 -12 -56 -3 -125 -8
-155 -11 -29 -3 -125 -7 -213 -9 -88 -2 -198 -8 -244 -15 -46 -6 -90 -9 -98
-6 -7 3 -41 8 -76 11 -34 4 -67 8 -74 10 -7 2 -63 7 -125 10 -117 7 -211 19
-263 35 -16 5 -62 14 -100 19 -68 10 -135 35 -135 50 0 4 -19 14 -42 21 -24 7
-48 19 -53 25 -9 11 -49 28 -67 30 -4 0 -13 6 -19 13 -7 6 -20 12 -28 12 -8 0
-22 6 -30 13 -22 18 -126 46 -236 62 -22 4 -47 9 -55 12 -29 12 -46 14 -118
15 -40 0 -75 5 -78 9 -10 16 -63 10 -73 -8 -9 -17 -10 -17 -29 0 -16 15 -32
17 -83 13 -35 -2 -77 -10 -94 -17 -16 -7 -38 -11 -47 -10 -10 1 -37 -9 -60
-22 -24 -14 -49 -23 -56 -20 -7 3 -20 1 -30 -3 -9 -4 -21 -8 -25 -8 -4 -1 -11
-7 -15 -13 -4 -7 -32 -14 -61 -17 -30 -2 -56 -8 -60 -12 -7 -11 -40 -32 -61
-40 -81 -30 -122 -61 -114 -86 4 -12 0 -18 -11 -18 -9 0 -13 5 -9 11 4 7 1 10
-7 7 -8 -3 -13 -12 -11 -22 2 -11 -4 -16 -21 -16 -14 0 -30 -6 -36 -14 -16
-18 -51 -27 -51 -13 0 7 -5 4 -10 -5 -6 -9 -24 -19 -40 -23 -17 -4 -36 -12
-43 -18 -19 -18 -50 -37 -69 -43 -10 -4 -18 -10 -18 -15 0 -17 -29 -9 -33 9
-3 13 -6 10 -11 -10 -8 -26 -21 -33 -55 -28 -9 1 -12 -5 -9 -18 4 -15 -4 -25
-33 -42 -25 -13 -38 -28 -37 -38 2 -10 -5 -18 -17 -20 -11 -3 -29 -14 -40 -26
-11 -12 -28 -25 -38 -29 -9 -3 -17 -14 -17 -23 0 -14 -2 -15 -17 -3 -13 11
-17 11 -20 2 -3 -8 -14 -11 -29 -7 -20 5 -31 -1 -59 -32 l-35 -39 -29 35 -30
35 -32 -32 c-38 -39 -52 -42 -43 -8 5 19 2 25 -11 25 -13 0 -16 -6 -11 -25 8
-32 -9 -65 -34 -65 -15 0 -20 7 -20 26 0 14 -4 23 -9 20 -5 -3 -7 -14 -4 -24
2 -10 -3 -24 -11 -31 -9 -8 -16 -10 -16 -7 0 4 -9 2 -20 -4 -11 -6 -18 -15
-15 -21 4 -5 -1 -9 -9 -9 -9 0 -16 7 -16 15 0 9 -9 15 -21 15 -18 0 -20 4 -14
30 4 19 3 30 -4 30 -6 0 -11 -7 -11 -15 0 -24 -27 -29 -56 -10 -24 16 -25 17
-9 42 19 29 18 32 -21 37 -16 2 -21 1 -11 -1 18 -5 23 -28 8 -37 -5 -3 -14 0
-20 8 -7 8 -21 12 -31 9 -11 -3 -20 0 -20 6 0 6 -10 10 -22 9 -13 0 -30 1 -38
3 -10 3 -16 -5 -18 -22 -3 -22 -9 -28 -35 -32 -18 -2 -40 1 -52 9 -11 8 -27
14 -37 14 -12 0 -16 5 -11 18 4 12 3 14 -5 7 -6 -5 -14 -23 -18 -39 -6 -26 -5
-29 15 -23 24 6 31 -3 41 -47 7 -35 33 -42 38 -10 5 32 52 28 52 -3 0 -17 -6
-23 -21 -23 -16 0 -20 -4 -14 -17 5 -15 4 -16 -6 -5 -7 6 -22 12 -33 12 -16 0
-17 -3 -8 -12 16 -16 15 -38 -2 -38 -10 0 -13 -13 -12 -47 1 -29 -4 -48 -11
-50 -8 -3 -13 4 -13 15 0 29 -12 34 -27 12 -8 -11 -19 -18 -24 -14 -5 3 -16 0
-24 -6 -16 -13 -21 -32 -7 -28 11 4 14 -5 7 -24 -4 -10 -11 -16 -15 -13 -4 3
-11 -36 -15 -85 -4 -50 -11 -90 -16 -90 -5 0 -8 3 -8 8 5 32 -26 47 -37 17 -4
-8 -12 -15 -20 -15 -18 0 -18 -3 6 -52 11 -23 20 -50 20 -60 0 -23 27 -78 39
-78 4 0 6 -11 3 -25 -2 -14 -8 -25 -13 -25 -5 0 -6 -7 -3 -15 4 -8 -1 -17 -10
-21 -9 -3 -14 -10 -11 -14 8 -12 -6 -41 -16 -34 -5 3 -9 -2 -9 -11 0 -9 9 -19
19 -22 11 -3 21 -13 24 -23 6 -23 -19 -35 -27 -13 -6 14 -20 11 -22 -5 0 -4
-4 -15 -8 -24 -5 -10 -5 -26 -1 -35 5 -10 7 -25 6 -34 -1 -8 11 -21 26 -29 16
-7 23 -15 16 -17 -7 -3 -13 -10 -13 -17 0 -21 -45 -57 -63 -50 -26 9 -38 -4
-25 -26 14 -22 55 -17 73 7 9 12 17 9 45 -16 19 -17 29 -31 23 -31 -7 0 -13 5
-13 12 0 8 -6 7 -16 -4 -16 -16 -12 -58 7 -58 17 0 9 -37 -12 -56 -18 -16 -22
-17 -33 -4 -6 8 -21 23 -33 34 l-22 18 1 -51 c0 -39 3 -49 12 -42 15 13 56 10
57 -4 0 -5 4 -1 8 10 7 17 9 16 15 -10 4 -17 13 -33 19 -37 30 -18 6 -101 -32
-111 -11 -3 -26 2 -32 10 -10 11 -8 15 8 19 18 5 20 13 19 57 0 30 -6 52 -13
55 -8 2 -13 -5 -13 -17 0 -11 -4 -23 -10 -26 -5 -3 -10 -19 -10 -36 0 -19 -10
-38 -30 -57 -22 -22 -27 -31 -18 -40 9 -9 6 -18 -12 -37 -16 -17 -20 -28 -13
-37 15 -21 10 -83 -7 -83 -21 0 -23 121 -3 153 13 21 12 23 -9 31 -15 6 -24 5
-26 -3 -2 -6 -19 -19 -38 -29 -27 -13 -40 -15 -55 -7 -11 6 -24 8 -30 4 -7 -4
-9 6 -7 27 3 31 6 34 34 32 22 -2 34 2 38 14 9 21 -3 31 -14 13 -8 -13 -10
-12 -10 2 0 10 -12 19 -32 23 -18 4 -38 11 -44 16 -7 6 -16 4 -24 -6 -12 -14
-50 -21 -50 -10 0 4 7 20 16 36 18 35 11 50 -12 27 -14 -14 -19 -14 -45 -1
-33 16 -34 34 -3 43 11 3 19 12 19 20 0 11 -9 14 -33 12 -23 -3 -39 3 -56 19
-25 24 -24 49 0 49 32 0 11 27 -30 38 -30 8 -45 18 -49 33 -4 15 -11 19 -25
14 -14 -4 -22 0 -26 12 -7 22 -53 45 -62 32 -7 -12 -34 8 -34 26 0 8 8 11 19
8 22 -5 37 23 21 42 -5 6 -7 15 -4 18 3 3 3 11 -1 17 -5 8 -11 7 -23 -2 -14
-11 -15 -10 -7 7 4 11 10 35 13 53 4 27 1 32 -17 32 -31 0 -72 40 -65 63 4 13
2 17 -5 13 -7 -4 -11 1 -11 12 0 23 -46 75 -60 67 -5 -3 -14 4 -20 15 -9 16
-8 20 5 20 8 0 15 3 15 8 -1 11 -30 47 -40 48 -6 1 -14 2 -20 3 -5 0 -10 9
-10 19 0 25 -56 87 -63 70 -4 -10 -10 -8 -21 6 -8 10 -13 22 -11 26 3 4 -3 7
-12 6 -10 0 -23 11 -31 27 -14 29 -27 35 -36 15 -3 -10 -8 -8 -16 4 -6 10 -17
15 -25 11 -13 -4 -14 -1 -5 22 13 35 13 35 -12 35 -12 0 -32 9 -44 21 -19 17
-25 19 -42 8 -16 -10 -23 -10 -36 0 -8 7 -20 10 -25 7 -15 -10 -24 13 -11 29
8 9 8 15 0 20 -6 3 -8 10 -5 15 3 5 1 11 -4 15 -11 6 -33 -29 -24 -39 3 -3 -1
-6 -10 -6 -9 0 -16 3 -15 8 0 4 -3 16 -7 26 -6 13 -4 21 4 24 17 6 -52 52 -78
52 -10 0 -22 6 -25 13 -5 9 -7 9 -12 -1 -7 -16 -25 -5 -18 12 6 16 -12 31 -47
39 -15 4 -37 16 -50 28 -14 12 -18 19 -8 16 21 -7 43 8 34 22 -5 9 -10 9 -20
1 -7 -6 -20 -7 -30 -4 -13 5 -16 15 -12 40 3 19 2 34 -4 34 -5 0 -9 -7 -9 -15
0 -8 -7 -15 -15 -15 -9 0 -12 6 -9 15 4 9 0 15 -10 15 -9 0 -16 -5 -16 -11 0
-6 -8 -9 -17 -7 -13 2 -18 13 -18 39 0 31 3 35 19 31 19 -5 19 -4 -1 17 -25
27 -43 20 -43 -15 0 -13 -5 -24 -10 -24 -6 0 -9 15 -8 32 3 28 -1 34 -19 36
-17 3 -23 -2 -23 -16 0 -11 6 -23 13 -25 9 -4 9 -6 0 -6 -10 -1 -13 -782 -13
-3871 l0 -3870 2823 0 2824 0 14 27 c19 38 35 53 53 53 9 0 16 4 16 10 0 5 18
20 40 32 59 34 54 49 -9 27 -46 -16 -63 -7 -50 28 8 22 7 30 -7 40 -15 11 -15
14 5 42 26 37 74 78 101 86 11 4 18 11 15 16 -4 5 1 9 9 9 9 0 16 3 16 8 0 11
58 34 70 27 5 -3 10 1 10 9 0 9 4 16 9 16 12 0 32 -26 26 -32 -3 -3 3 -8 15
-11 27 -7 26 17 -1 44 -16 16 -18 24 -10 32 9 9 14 8 21 -3 8 -12 10 -12 15 2
5 12 15 15 46 11 25 -4 39 -2 39 6 0 6 -6 11 -12 12 -7 0 2 5 20 10 18 6 36
18 39 27 4 9 13 23 20 30 6 7 10 19 7 27 -4 9 0 15 10 15 9 0 16 6 16 13 0 7
11 23 25 35 30 26 32 39 6 47 -17 5 -18 10 -9 42 7 26 6 38 -2 43 -14 9 11 20
46 20 17 0 22 -4 18 -15 -4 -8 -1 -15 5 -15 6 0 11 4 11 9 0 5 3 16 6 24 3 9
-2 16 -13 19 -10 3 -24 17 -30 31 -7 15 -18 38 -24 51 -6 13 -8 29 -5 35 4 6
2 11 -5 11 -10 0 -10 3 -2 11 6 6 9 17 7 24 -3 7 5 20 18 29 12 9 17 16 11 16
-18 0 -22 26 -8 53 7 14 11 28 7 31 -11 12 -23 5 -34 -19 -15 -33 -34 -32 -46
2 -5 16 -13 37 -18 47 -5 14 -4 17 5 12 9 -6 12 -2 9 14 -1 12 -16 29 -33 38
-93 51 -96 54 -84 68 14 17 -9 74 -29 74 -10 0 -12 8 -7 29 5 25 2 30 -29 45
-25 12 -33 21 -29 34 7 28 -20 46 -46 30 -30 -19 -51 4 -28 30 21 23 22 42 2
42 -22 0 -18 17 6 23 12 3 18 10 14 16 -9 15 -62 14 -72 -2 -5 -9 -22 -12 -49
-9 -41 4 -42 5 -42 43 -1 36 1 39 39 50 45 14 51 35 14 49 -25 10 -25 10 -8
37 10 16 23 32 30 36 8 5 10 13 7 19 -4 6 -1 9 7 6 8 -3 14 -15 13 -27 -1 -18
4 -21 30 -19 22 2 33 -2 41 -17 5 -11 19 -20 30 -20 14 0 20 -7 20 -21 1 -25
22 -54 39 -54 14 0 76 -67 76 -82 0 -5 13 -7 30 -3 19 4 30 3 30 -4 0 -6 -4
-11 -10 -11 -5 0 -10 -9 -10 -20 0 -11 -7 -20 -15 -20 -9 0 -15 -9 -15 -25 0
-22 4 -25 40 -25 22 0 40 -2 40 -4 0 -1 -5 -17 -11 -35 -7 -20 -16 -30 -25
-27 -7 3 -16 1 -19 -4 -4 -6 0 -10 8 -10 18 0 48 -33 51 -57 2 -12 11 -18 27
-18 20 0 24 -5 21 -26 -1 -14 6 -34 18 -46 24 -26 80 -146 80 -172 0 -10 6
-21 13 -24 8 -3 14 -23 15 -49 1 -23 6 -58 11 -76 9 -28 7 -32 -10 -32 -24 0
-25 -25 0 -47 11 -9 17 -22 14 -29 -3 -8 -1 -14 5 -14 14 0 7 -64 -11 -99 -12
-25 -13 -33 -2 -48 7 -9 11 -23 8 -29 -2 -7 5 -15 16 -19 14 -4 21 -15 21 -31
0 -14 5 -34 10 -44 13 -24 -2 -63 -36 -95 -26 -24 -26 -27 -16 -82 20 -106 10
-142 -58 -207 -28 -26 -50 -56 -50 -65 0 -9 -4 -21 -9 -27 -4 -5 -11 -21 -15
-37 l-6 -27 148 0 148 0 12 28 c7 15 19 40 28 55 22 39 11 102 -19 112 -21 7
-20 8 6 12 17 3 32 15 41 32 8 15 22 33 30 40 9 7 13 17 10 22 -3 5 -1 9 4 9
28 0 19 54 -15 88 -7 7 -13 19 -13 25 0 7 8 2 18 -10 26 -34 47 -16 38 32 -7
38 -10 45 -39 101 -9 17 -19 50 -23 72 -5 34 -4 42 9 42 18 0 30 39 17 55 -6
7 -7 15 -3 18 3 4 -4 19 -18 33 -18 20 -24 37 -25 77 -1 29 -4 59 -7 67 -4 8
-6 26 -5 40 1 34 -27 162 -51 235 -11 32 -18 62 -15 66 2 4 0 10 -5 14 -6 3
-8 12 -5 19 3 7 -11 37 -31 67 -19 29 -35 57 -35 62 0 5 -15 27 -32 50 -18 23
-38 51 -44 62 -6 11 -20 21 -31 23 -15 2 -19 8 -16 23 5 16 1 20 -13 18 -10
-2 -34 5 -53 15 -29 15 -32 21 -27 47 6 32 4 34 -24 19 -16 -9 -21 -6 -26 14
-6 24 -40 36 -105 36 -36 0 -55 23 -34 40 23 19 48 78 41 96 -4 10 -13 13 -27
9 -18 -6 -20 -4 -15 13 5 14 -1 28 -19 46 -14 14 -25 32 -25 40 0 9 -11 23
-24 32 -14 8 -23 21 -20 28 5 13 -140 86 -171 86 -19 0 -33 32 -17 38 7 2 12
12 12 21 0 20 30 51 49 51 8 0 5 11 -9 30 -12 16 -26 29 -32 27 -6 -1 -13 4
-15 11 -3 6 0 12 6 12 17 0 13 18 -10 39 -12 11 -18 24 -14 30 3 6 -1 11 -9
11 -9 0 -16 5 -16 11 0 6 8 8 18 5 15 -5 18 0 19 28 1 25 -4 36 -16 39 -9 3
-4 5 12 6 15 0 27 6 27 12 0 5 -4 8 -10 4 -14 -8 -53 34 -46 51 3 8 9 14 14
14 5 0 23 23 41 50 27 41 37 50 53 44 14 -4 18 -2 14 5 -4 6 -15 11 -24 11
-10 1 -2 9 18 19 19 11 34 22 33 25 -8 17 0 25 28 28 19 2 36 11 43 23 6 11
15 23 20 26 5 4 6 15 2 25 -7 18 -8 18 -22 0 -11 -16 -14 -17 -14 -4 0 24 26
41 52 32 22 -6 22 -6 5 13 -16 19 -16 20 7 32 13 7 32 33 42 57 20 49 28 53
45 23 9 -17 8 -23 -2 -30 -7 -4 -10 -12 -5 -16 9 -10 38 26 30 38 -3 5 -1 9 5
9 5 0 15 -8 20 -17 8 -14 13 -15 19 -5 5 7 16 10 24 7 13 -5 16 2 16 36 1 23
6 45 12 49 9 5 9 9 1 14 -6 4 -11 18 -11 32 0 19 -5 24 -25 24 -16 0 -25 6
-25 15 0 8 6 15 14 15 8 0 25 12 38 28 18 21 30 26 56 24 27 -3 31 -6 22 -21
-8 -16 -5 -18 20 -17 l29 1 -25 26 c-13 14 -26 39 -29 55 -2 16 -7 39 -11 52
-5 19 -3 22 20 22 16 0 26 5 26 15 0 8 -7 15 -15 15 -38 0 0 28 42 31 13 1 43
31 43 44 0 16 47 37 55 25 11 -17 25 -11 35 15 5 14 16 25 25 25 19 0 20 -29
0 -36 -8 -4 -15 -15 -15 -26 0 -18 5 -20 37 -15 42 7 64 24 46 35 -6 4 -15 20
-18 35 -6 22 -4 26 9 21 10 -4 18 0 22 10 5 13 14 15 40 10 27 -5 34 -3 34 10
0 9 -11 21 -25 26 -32 12 -35 45 -3 37 27 -8 52 21 35 41 -14 18 7 32 50 32
25 0 32 -5 35 -22 2 -17 11 -24 31 -26 32 -4 60 15 53 35 -4 10 -1 11 12 4 13
-7 24 -4 42 9 13 10 30 16 37 13 8 -3 13 3 13 16 0 22 39 39 59 26 6 -3 11 -2
11 4 0 5 -4 13 -10 16 -5 3 -10 15 -10 26 0 14 -7 19 -28 19 -36 0 -45 9 -30
27 9 11 9 17 -3 24 -9 6 -2 7 20 2 25 -4 32 -3 27 5 -9 14 3 15 24 2 12 -8 12
-10 -3 -16 -25 -9 -21 -26 6 -22 16 2 21 9 20 26 -3 27 17 29 24 2 5 -19 13
-20 92 -18 47 1 94 -2 105 -6 18 -9 18 -8 1 18 -13 19 -14 25 -4 22 8 -3 31
-7 51 -9 29 -4 41 0 58 18 12 13 23 35 24 49 0 14 7 28 14 31 6 2 12 12 12 21
0 12 -6 15 -21 11 -12 -3 -33 2 -47 11 -15 9 -28 16 -31 14 -3 -2 -7 1 -9 7
-2 6 0 11 5 12 4 0 26 2 48 3 22 2 43 -1 46 -6 3 -5 17 -4 34 2 21 8 30 8 36
-1 4 -6 11 -9 17 -5 5 3 13 -1 16 -10 3 -8 10 -12 16 -9 6 4 8 11 5 16 -12 18
6 29 27 18 18 -10 20 -9 15 6 -4 9 -7 20 -7 25 0 4 -9 6 -20 3 -15 -4 -20 0
-20 16 0 17 4 20 24 15 29 -7 44 21 18 36 -14 8 -15 11 -3 19 10 6 22 6 33 0
22 -12 41 -2 34 16 -2 7 2 16 10 19 27 10 14 27 -18 24 -17 -2 -33 2 -35 8 -5
14 43 39 72 36 13 -1 34 9 50 25 17 18 29 23 33 16 9 -14 43 -12 60 4 19 19 4
66 -19 60 -11 -3 -22 -1 -25 4 -8 14 23 22 42 11 21 -12 62 1 78 24 10 12 14
13 30 1 23 -17 13 -59 -12 -56 -9 1 -30 1 -47 0 l-30 -1 29 -15 c15 -8 35 -15
42 -15 9 0 14 -11 14 -30 0 -23 4 -30 20 -30 13 0 18 5 13 15 -6 17 28 49 37
35 3 -5 16 -7 28 -3 33 8 23 36 -16 49 -24 7 -29 13 -20 22 8 8 4 14 -16 23
-14 7 -25 17 -23 23 4 13 47 21 47 9 0 -11 53 -11 61 0 9 13 51 -2 43 -15 -4
-6 1 -8 15 -3 13 4 21 2 21 -5 0 -6 6 -10 13 -8 21 4 95 -40 102 -61 3 -10 17
-22 30 -25 16 -4 22 -11 19 -21 -4 -9 3 -16 21 -21 15 -4 39 -18 53 -31 20
-19 34 -23 55 -19 23 5 28 3 23 -9 -3 -9 0 -15 9 -15 8 0 15 -7 15 -16 0 -11
-8 -15 -28 -13 -35 4 -52 -7 -52 -32 0 -11 4 -18 9 -14 5 3 17 -3 27 -12 12
-13 19 -14 22 -5 6 18 22 15 22 -4 0 -10 6 -14 15 -10 9 3 15 0 15 -9 0 -8 9
-15 21 -15 11 0 40 -11 65 -25 25 -14 49 -23 54 -20 5 3 18 -3 30 -15 11 -11
31 -20 45 -20 28 0 75 -26 75 -42 0 -5 -12 -8 -27 -5 -16 2 -22 2 -15 0 15 -5
15 -9 2 -34 -7 -13 -7 -19 0 -19 16 0 12 -40 -6 -47 -12 -5 -10 -11 16 -34 35
-32 52 -36 69 -15 15 18 -1 30 -27 22 -16 -6 -19 1 -20 49 -1 37 2 54 9 49 6
-3 8 -16 5 -29 -5 -20 -2 -22 27 -21 17 1 35 5 39 10 4 6 10 -2 13 -17 4 -15
12 -27 17 -27 6 0 16 -7 22 -16 10 -14 14 -14 24 -2 9 12 7 17 -13 28 -14 7
-25 20 -25 28 0 12 4 12 20 -3 19 -17 19 -16 14 11 -3 16 -18 41 -35 56 -16
15 -29 29 -29 32 0 9 31 -6 54 -26 83 -75 112 -98 122 -98 6 0 27 -20 45 -45
19 -24 39 -45 45 -45 7 0 15 -7 18 -16 5 -13 9 -14 20 -4 12 9 17 7 27 -12 7
-13 11 -25 10 -27 -1 -2 9 -11 22 -20 13 -9 43 -28 66 -44 22 -15 41 -32 41
-38 0 -5 5 -7 10 -4 6 4 17 2 25 -5 8 -6 26 -10 42 -7 27 4 27 4 5 12 -13 4
-21 13 -19 19 3 7 -1 20 -9 31 -10 14 -14 15 -15 4 0 -8 -4 -6 -9 6 -4 11 -4
24 1 30 15 16 10 25 -15 25 -14 0 -28 5 -31 10 -3 6 -1 10 4 10 6 0 11 6 11
13 -1 16 -35 57 -49 57 -6 0 -11 6 -11 14 0 9 -7 12 -20 9 -12 -3 -20 0 -20 7
0 9 10 11 31 6 17 -3 35 -6 40 -6 5 0 6 -6 3 -13 -2 -7 6 -19 18 -26 30 -15
68 -71 68 -99 0 -13 6 -22 15 -22 9 0 18 -8 22 -17 3 -10 23 -35 45 -56 21
-21 38 -44 38 -51 0 -29 83 -96 119 -96 19 0 21 6 21 50 0 32 -4 50 -12 50 -9
0 -9 3 0 12 27 27 6 103 -25 91 -12 -5 -15 -2 -10 10 4 10 1 17 -6 17 -7 0
-17 8 -22 18 -30 54 -52 81 -68 86 -11 2 -16 9 -12 15 8 13 35 15 35 2 0 -5
16 -15 37 -22 20 -6 47 -23 59 -38 l23 -26 1 2958 0 2957 -2249 0 -2249 0 15
-31 c8 -17 13 -33 9 -36 -12 -12 -34 7 -39 36 -6 28 -10 31 -41 31 -27 0 -34
-3 -30 -15 4 -9 0 -15 -10 -15 -9 0 -16 7 -16 15 0 9 -9 15 -25 15 -25 0 -34
-14 -16 -24 5 -3 7 -15 4 -26 -6 -23 -43 -28 -43 -6 0 8 -9 18 -21 21 -12 4
-18 12 -15 21 7 18 -54 20 -72 2 -10 -10 -17 -10 -32 0 -15 9 -132 12 -469 12
l-450 0 17 -40z m1832 -115 c0 -26 -3 -33 -15 -29 -15 6 -21 45 -8 57 15 15
23 5 23 -28z m-360 -36 c0 -10 -7 -19 -15 -19 -15 0 -21 31 -9 43 11 10 24 -3
24 -24z m1235 -9 c3 -5 1 -10 -4 -10 -6 0 -11 5 -11 10 0 6 2 10 4 10 3 0 8
-4 11 -10z m535 -145 c13 -16 7 -45 -10 -45 -6 0 -14 10 -19 23 -14 36 5 51
29 22z m-70 -20 c0 -8 -4 -15 -10 -15 -5 0 -10 7 -10 15 0 8 5 15 10 15 6 0
10 -7 10 -15z m740 -82 c0 -7 -4 -13 -10 -13 -5 0 -10 6 -10 14 0 8 -3 23 -6
33 -5 16 -4 16 10 -1 9 -11 16 -26 16 -33z m454 -44 c-6 -11 -44 12 -44 27 0
6 3 14 7 18 10 9 45 -33 37 -45z m226 -214 c0 -9 -6 -12 -15 -9 -8 4 -15 10
-15 15 0 5 7 9 15 9 8 0 15 -7 15 -15z m659 -326 c-15 -22 -25 -27 -32 -20 -7
7 -3 18 14 34 33 32 44 23 18 -14z m51 -63 c0 -15 -18 -31 -26 -23 -7 7 7 37
17 37 5 0 9 -6 9 -14z m129 -61 c13 -38 9 -55 -15 -55 -18 0 -29 25 -18 42 5
7 7 21 6 31 -5 30 14 18 27 -18z m25 -107 c9 -12 16 -32 16 -45 0 -12 7 -28
15 -37 8 -8 11 -17 6 -20 -12 -8 -36 21 -57 69 -10 22 -20 43 -22 48 -9 18 28
5 42 -15z m86 12 c0 -5 -6 -10 -14 -10 -8 0 -18 5 -21 10 -3 6 3 10 14 10 12
0 21 -4 21 -10z m-152 -207 c-5 -25 -28 -28 -28 -4 0 12 6 21 16 21 9 0 14 -7
12 -17z m182 -12 c0 -6 -4 -13 -10 -16 -5 -3 -10 1 -10 9 0 9 5 16 10 16 6 0
10 -4 10 -9z m-5829 -31 c5 0 9 -4 9 -10 0 -5 -11 -10 -25 -10 -16 0 -25 6
-25 16 0 11 5 14 16 10 9 -3 20 -6 25 -6z m-221 -60 c0 -5 -4 -10 -10 -10 -5
0 -10 5 -10 10 0 6 5 10 10 10 6 0 10 -4 10 -10z m6120 -39 c0 -14 -18 -23
-30 -16 -6 4 -8 11 -5 16 8 12 35 12 35 0z m2 -73 c8 -18 12 -42 8 -52 -6 -17
-9 -15 -29 18 -21 34 -23 66 -3 66 4 0 15 -15 24 -32z m-14 -141 c2 -10 -3
-17 -12 -17 -10 0 -16 9 -16 21 0 24 23 21 28 -4z m-7293 -108 c-3 -4 3 -13
12 -19 17 -11 17 -11 1 -6 -25 8 -22 -11 7 -39 l24 -25 -34 0 c-31 0 -35 -3
-35 -25 0 -14 -4 -25 -10 -25 -5 0 -7 -7 -4 -15 4 -8 1 -15 -4 -15 -20 0 -23
19 -7 44 9 14 13 31 9 37 -8 13 -7 86 1 99 3 4 14 6 25 3 11 -3 17 -9 15 -14z
m65 -3 c0 -2 -7 -6 -15 -10 -8 -3 -15 -1 -15 4 0 6 7 10 15 10 8 0 15 -2 15
-4z m7178 -35 c15 -18 16 -41 2 -41 -20 0 -60 48 -54 65 7 17 24 8 52 -24z
m-9308 4 c0 -8 -7 -15 -15 -15 -9 0 -12 6 -9 15 4 8 10 15 15 15 5 0 9 -7 9
-15z m35 -34 c3 -5 1 -12 -5 -16 -5 -3 -10 1 -10 9 0 18 6 21 15 7z m8299 -17
c23 -9 20 -24 -4 -24 -11 0 -20 7 -20 15 0 17 2 18 24 9z m944 -44 c17 0 15
-20 -3 -27 -20 -7 -55 24 -55 50 0 20 0 20 23 -1 13 -12 29 -22 35 -22z
m-7163 -32 c-9 -40 -22 -57 -30 -36 -7 19 11 68 26 68 7 0 8 -11 4 -32z m6960
-18 c1 -11 -5 -26 -13 -32 -11 -10 -18 -7 -33 12 -18 25 -18 25 9 37 31 13 35
11 37 -17z m97 -15 c6 -28 -6 -34 -16 -9 -8 22 -7 34 3 34 5 0 11 -11 13 -25z
m-7145 -2 c2 -6 -4 -13 -13 -17 -21 -8 -26 -3 -18 18 7 18 25 17 31 -1z m7081
-48 c15 -33 15 -35 -2 -35 -20 0 -37 25 -30 44 9 23 19 20 32 -9z m-638 -25
c0 -5 -7 -10 -16 -10 -8 0 -12 5 -9 10 3 6 10 10 16 10 5 0 9 -4 9 -10z m521
-31 c4 -18 6 -36 3 -38 -6 -6 -44 36 -44 49 0 5 -6 10 -12 11 -7 0 -4 4 7 9
30 13 39 7 46 -31z m-7131 -15 c0 -9 -5 -14 -12 -12 -18 6 -21 28 -4 28 9 0
16 -7 16 -16z m7060 -105 c0 -5 -7 -9 -15 -9 -15 0 -20 12 -9 23 8 8 24 -1 24
-14z m-7094 -76 c-10 -10 -19 5 -10 18 6 11 8 11 12 0 2 -7 1 -15 -2 -18z
m-114 -25 c-9 -9 -12 -7 -12 12 0 19 3 21 12 12 9 -9 9 -15 0 -24z m87 -12
c14 -16 4 -46 -15 -46 -9 0 -14 11 -14 30 0 32 11 38 29 16z m-1061 -28 c4
-19 -20 -29 -38 -18 -11 7 -12 11 0 25 15 18 34 15 38 -7z m222 -342 c0 -3 -4
-8 -10 -11 -5 -3 -10 -1 -10 4 0 6 5 11 10 11 6 0 10 -2 10 -4z m810 -126 c0
-5 -2 -10 -4 -10 -3 0 -8 5 -11 10 -3 6 -1 10 4 10 6 0 11 -4 11 -10z m0 -35
c0 -8 -7 -15 -15 -15 -16 0 -20 12 -8 23 11 12 23 8 23 -8z m-655 -85 c3 -5 1
-10 -4 -10 -6 0 -11 5 -11 10 0 6 2 10 4 10 3 0 8 -4 11 -10z m672 -72 c-3 -8
-6 -5 -6 6 -1 11 2 17 5 13 3 -3 4 -12 1 -19z m-432 -198 c-27 -12 -35 -12
-35 0 0 6 12 10 28 9 24 0 25 -1 7 -9z m495 -50 c0 -5 -7 -10 -15 -10 -8 0
-15 5 -15 10 0 6 7 10 15 10 8 0 15 -4 15 -10z m-143 -17 c4 -10 11 -21 16
-24 7 -5 4 -16 -20 -58 -8 -14 -33 27 -33 54 0 45 24 63 37 28z m-43 -147 c-1
-9 5 -16 13 -16 13 0 13 -3 3 -15 -18 -21 -25 -19 -41 13 -7 15 -15 30 -16 33
-2 3 7 5 19 4 15 -1 22 -8 22 -19z m7583 -1602 c-9 -10 -38 16 -31 28 4 6 13
4 22 -6 9 -8 13 -19 9 -22z m-1687 -71 c0 -1 -3 -8 -6 -17 -5 -12 -10 -13 -30
-4 -33 15 -30 28 6 25 16 -1 30 -3 30 -4z m634 1 c13 -5 14 -9 5 -20 -13 -16
-29 -9 -29 12 0 16 2 16 24 8z m-109 -34 c3 -5 1 -10 -4 -10 -6 0 -11 5 -11
10 0 6 2 10 4 10 3 0 8 -4 11 -10z m94 -26 c6 -6 -31 -33 -46 -34 -7 0 -13 12
-13 26 0 24 3 25 27 19 16 -4 30 -9 32 -11z m-579 -9 c0 -8 -4 -15 -10 -15 -5
0 -10 7 -10 15 0 8 5 15 10 15 6 0 10 -7 10 -15z m631 -22 c4 -36 2 -38 -23
-38 -32 0 -34 4 -14 31 10 13 11 23 4 31 -8 10 -5 13 10 13 16 0 21 -8 23 -37z
m276 19 c10 -17 8 -18 -23 -8 -39 12 -45 26 -11 26 12 0 27 -8 34 -18z m447
-58 c16 -16 21 -34 9 -34 -10 0 -43 32 -43 42 0 13 17 9 34 -8z m-640 -2 c7
-12 -13 -82 -23 -82 -4 0 -8 6 -8 13 0 6 -2 17 -3 22 -3 15 11 55 21 55 4 0
10 -4 13 -8z m141 -49 c56 -85 54 -81 34 -76 -11 3 -22 9 -25 14 -9 15 -34 10
-34 -6 0 -8 4 -15 8 -15 5 0 17 -6 27 -14 17 -12 17 -13 -9 -18 -15 -3 -24 -3
-21 0 7 7 -51 42 -70 42 -8 0 -15 5 -15 10 0 6 11 10 24 10 37 0 39 14 5 39
-16 12 -27 26 -24 31 8 13 89 -1 100 -17z m540 -3 c3 -5 1 -10 -4 -10 -6 0
-11 5 -11 10 0 6 2 10 4 10 3 0 8 -4 11 -10z m-1692 -54 c16 -12 24 -36 12
-36 -14 0 -65 32 -65 40 0 14 32 12 53 -4z m1311 -98 c-3 -12 0 -18 10 -18 21
0 41 -39 28 -52 -11 -11 -76 32 -86 58 -3 7 -13 14 -23 14 -16 1 -16 2 -2 13
8 7 18 21 22 31 7 18 9 18 32 -4 16 -15 23 -30 19 -42z m-1322 30 c-5 -5 -29
-12 -52 -15 -32 -5 -41 -3 -36 6 5 7 14 10 22 7 8 -3 19 1 26 8 7 7 21 11 31
8 11 -3 15 -8 9 -14z m-122 -28 c0 -5 -4 -10 -10 -10 -5 0 -10 5 -10 10 0 6 5
10 10 10 6 0 10 -4 10 -10z m-50 -70 c0 -5 -7 -10 -16 -10 -8 0 -12 5 -9 10 3
6 10 10 16 10 5 0 9 -4 9 -10z m66 -37 c-2 -10 -10 -19 -19 -21 -11 -2 -14 2
-10 17 6 25 32 28 29 4z m1474 10 c0 -10 -52 -35 -58 -28 -2 2 -2 11 1 20 6
15 57 22 57 8z m260 -108 c0 -8 -4 -15 -9 -15 -13 0 -22 16 -14 24 11 11 23 6
23 -9z m269 -9 c19 -23 -4 -28 -24 -6 -15 17 -16 20 -3 20 9 0 21 -6 27 -14z
m66 -26 c3 -5 -1 -10 -10 -10 -9 0 -13 5 -10 10 3 6 8 10 10 10 2 0 7 -4 10
-10z m135 -5 c0 -8 -4 -15 -10 -15 -5 0 -10 7 -10 15 0 8 5 15 10 15 6 0 10
-7 10 -15z m-139 -51 c6 -8 17 -14 25 -14 17 0 84 -40 84 -50 0 -20 -24 -21
-51 -1 -33 25 -40 26 -33 6 4 -8 1 -15 -5 -15 -6 0 -11 7 -11 15 0 8 -13 21
-29 29 -28 15 -45 39 -35 49 8 8 42 -4 55 -19z m-2481 2 c-1 -12 -24 -46 -32
-46 -2 0 -3 13 0 28 3 27 32 42 32 18z m-69 -36 c24 -13 25 -30 2 -30 -26 0
-47 16 -39 29 9 14 12 14 37 1z m2349 -30 c0 -5 -2 -10 -4 -10 -3 0 -8 5 -11
10 -3 6 -1 10 4 10 6 0 11 -4 11 -10z m-2620 -127 c0 -19 -3 -24 -10 -17 -6 6
-8 18 -4 27 9 24 14 21 14 -10z m-480 -453 c0 -5 -4 -10 -10 -10 -5 0 -10 5
-10 10 0 6 5 10 10 10 6 0 10 -4 10 -10z m-80 -100 c0 -5 -5 -10 -11 -10 -5 0
-7 5 -4 10 3 6 8 10 11 10 2 0 4 -4 4 -10z m-250 -760 c0 -5 -4 -10 -10 -10
-5 0 -10 5 -10 10 0 6 5 10 10 10 6 0 10 -4 10 -10z m35 -400 c-3 -5 -15 -10
-26 -10 -10 0 -19 5 -19 10 0 6 12 10 26 10 14 0 23 -4 19 -10z m-62 -139 c-9
-12 -24 -21 -32 -21 -9 0 -3 10 14 26 32 29 45 26 18 -5z m207 -242 c0 -5 -4
-9 -10 -9 -5 0 -10 7 -10 16 0 8 5 12 10 9 6 -3 10 -10 10 -16z m40 -63 c0 -3
-4 -8 -10 -11 -5 -3 -10 -1 -10 4 0 6 5 11 10 11 6 0 10 -2 10 -4z m640 -702
c0 -8 -4 -12 -10 -9 -5 3 -10 10 -10 16 0 5 5 9 10 9 6 0 10 -7 10 -16z
m-1248 -429 c-5 -28 -20 -33 -28 -10 -7 17 14 48 26 40 4 -2 5 -16 2 -30z m83
15 c3 -5 1 -10 -4 -10 -6 0 -11 5 -11 10 0 6 2 10 4 10 3 0 8 -4 11 -10z m-17
-32 c-7 -19 -38 -22 -38 -4 0 10 9 16 21 16 12 0 19 -5 17 -12z m-128 -48 c0
-11 -6 -20 -14 -20 -21 0 -31 21 -15 31 22 14 29 11 29 -11z m72 -15 c0 -5 -5
-11 -11 -13 -6 -2 -11 4 -11 13 0 9 5 15 11 13 6 -2 11 -8 11 -13z"/>
<path d="M4890 9580 c0 -5 5 -10 10 -10 6 0 10 5 10 10 0 6 -4 10 -10 10 -5 0
-10 -4 -10 -10z"/>
<path d="M1143 9514 c-16 -17 -16 -29 0 -42 15 -13 31 -4 40 20 9 24 -23 41
-40 22z"/>
<path d="M3545 9496 c-22 -29 -24 -37 -14 -54 11 -17 14 -18 30 -4 17 15 17
16 1 29 -15 13 -15 13 6 8 12 -4 22 -3 22 2 0 4 3 18 6 31 10 35 -21 28 -51
-12z"/>
<path d="M3660 9508 c0 -4 4 -8 9 -8 6 0 12 4 15 8 3 5 -1 9 -9 9 -8 0 -15 -4
-15 -9z"/>
<path d="M4000 9470 c-12 -8 -11 -10 8 -10 12 0 22 5 22 10 0 13 -11 13 -30 0z"/>
<path d="M4092 9468 c-14 -14 -16 -38 -4 -38 5 0 16 6 26 13 15 11 16 15 4 25
-11 9 -17 9 -26 0z"/>
<path d="M3836 9453 c-6 -14 -5 -15 5 -6 7 7 10 15 7 18 -3 3 -9 -2 -12 -12z"/>
<path d="M1115 9443 c3 -9 0 -20 -7 -25 -10 -8 -10 -11 0 -15 20 -8 14 -33
-13 -45 -28 -13 -33 -39 -10 -58 8 -7 12 -16 9 -21 -3 -5 -1 -9 3 -9 14 0 33
39 27 55 -4 9 4 23 20 36 40 31 34 80 -12 92 -19 4 -22 2 -17 -10z"/>
<path d="M1216 9441 c-3 -3 4 -18 14 -31 15 -19 22 -22 31 -13 6 6 9 18 6 26
-6 16 -44 29 -51 18z"/>
<path d="M4610 9440 c0 -5 5 -10 10 -10 6 0 10 5 10 10 0 6 -4 10 -10 10 -5 0
-10 -4 -10 -10z"/>
<path d="M4985 9420 c-3 -5 -1 -10 4 -10 6 0 11 5 11 10 0 6 -2 10 -4 10 -3 0
-8 -4 -11 -10z"/>
<path d="M2450 9399 c0 -7 -8 -18 -17 -26 -16 -13 -16 -13 5 -3 19 9 32 40 17
40 -3 0 -5 -5 -5 -11z"/>
<path d="M3386 9372 c-8 -13 0 -46 11 -49 11 -4 25 36 17 49 -7 10 -21 10 -28
0z"/>
<path d="M5846 9361 c-3 -5 1 -11 9 -15 15 -6 29 7 18 18 -9 9 -21 8 -27 -3z"/>
<path d="M1292 9333 c6 -16 10 -38 9 -50 0 -15 5 -23 14 -23 26 0 28 28 5 65
-26 42 -44 47 -28 8z"/>
<path d="M5610 9330 c-6 -11 -7 -20 -2 -20 10 0 32 21 32 32 0 16 -19 8 -30
-12z"/>
<path d="M2581 9331 c-8 -5 -11 -16 -8 -25 10 -25 27 -19 27 9 0 28 0 28 -19
16z"/>
<path d="M3150 9320 c0 -5 5 -10 11 -10 5 0 7 5 4 10 -3 6 -8 10 -11 10 -2 0
-4 -4 -4 -10z"/>
<path d="M1230 9310 c0 -6 7 -10 15 -10 8 0 15 2 15 4 0 2 -7 6 -15 10 -8 3
-15 1 -15 -4z"/>
<path d="M5132 9290 c10 -17 14 -18 16 -5 3 11 8 13 22 5 10 -5 26 -7 34 -4
28 11 6 24 -40 24 -42 0 -44 -1 -32 -20z"/>
<path d="M5360 9295 c0 -16 16 -20 24 -6 3 5 -1 11 -9 15 -9 3 -15 0 -15 -9z"/>
<path d="M1151 9276 c-7 -8 -8 -17 -3 -20 6 -3 15 1 21 8 7 8 8 17 3 20 -6 3
-15 -1 -21 -8z"/>
<path d="M3166 9275 c-3 -8 -1 -15 4 -15 13 0 22 18 11 24 -5 3 -11 -1 -15 -9z"/>
<path d="M5456 9274 c-7 -18 0 -34 15 -34 12 0 12 37 0 44 -5 3 -12 -1 -15
-10z"/>
<path d="M3385 9270 c3 -5 8 -10 11 -10 2 0 4 5 4 10 0 6 -5 10 -11 10 -5 0
-7 -4 -4 -10z"/>
<path d="M1080 9230 c0 -5 4 -10 9 -10 6 0 13 5 16 10 3 6 -1 10 -9 10 -9 0
-16 -4 -16 -10z"/>
<path d="M1146 9222 c-4 -13 -5 -26 -2 -29 10 -11 18 4 14 29 l-4 23 -8 -23z"/>
<path d="M1340 9221 c0 -22 16 -36 24 -22 8 12 -3 41 -15 41 -5 0 -9 -9 -9
-19z"/>
<path d="M6690 9227 c0 -20 25 -67 34 -64 6 3 10 10 8 17 -2 7 3 10 12 7 17
-7 31 22 17 36 -7 7 -13 5 -17 -7 -6 -15 -8 -15 -30 -1 -13 8 -24 14 -24 12z"/>
<path d="M990 9185 c7 -8 21 -15 31 -15 12 0 19 -7 19 -20 0 -11 5 -20 10 -20
6 0 10 7 10 15 0 8 0 17 0 20 0 3 -2 5 -5 5 -3 0 -18 6 -35 15 -37 19 -46 19
-30 0z"/>
<path d="M2606 9151 c-5 -19 -17 -50 -27 -68 -14 -24 -15 -33 -6 -33 18 0 49
74 45 107 -4 27 -4 27 -12 -6z"/>
<path d="M7470 9162 c0 -22 19 -47 42 -55 19 -7 16 11 -10 51 -17 27 -32 29
-32 4z"/>
<path d="M1080 9110 c-12 -7 -12 -12 -3 -21 15 -15 26 -7 21 15 -2 11 -7 13
-18 6z"/>
<path d="M7008 9083 c7 -3 16 -2 19 1 4 3 -2 6 -13 5 -11 0 -14 -3 -6 -6z"/>
<path d="M7451 9073 c7 -10 15 -20 16 -22 2 -2 3 3 3 11 0 9 -7 19 -16 22 -15
6 -15 4 -3 -11z"/>
<path d="M1246 9045 c4 -8 10 -12 15 -9 14 8 10 24 -6 24 -9 0 -12 -6 -9 -15z"/>
<path d="M1160 9012 c0 -31 34 -62 59 -55 26 7 27 21 4 30 -10 3 -28 15 -40
26 l-23 20 0 -21z"/>
<path d="M355 8950 c-3 -5 1 -10 9 -10 9 0 16 5 16 10 0 6 -4 10 -9 10 -6 0
-13 -4 -16 -10z"/>
<path d="M505 8949 c-4 -6 -5 -12 -2 -15 2 -3 7 2 10 11 7 17 1 20 -8 4z"/>
<path d="M772 8939 c2 -6 8 -10 13 -10 5 0 11 4 13 10 2 6 -4 11 -13 11 -9 0
-15 -5 -13 -11z"/>
<path d="M536 8904 c-4 -10 -1 -14 6 -12 15 5 23 28 10 28 -5 0 -13 -7 -16
-16z"/>
<path d="M846 8911 c-4 -7 -5 -15 -2 -18 9 -9 19 4 14 18 -4 11 -6 11 -12 0z"/>
<path d="M1053 8913 c-7 -2 -13 -9 -13 -14 0 -6 8 -5 20 1 17 9 22 7 28 -11 8
-20 9 -20 15 -5 12 31 -12 45 -50 29z"/>
<path d="M604 8886 c-7 -29 1 -46 22 -46 8 0 14 -5 14 -12 0 -6 3 -9 6 -5 3 3
3 24 -1 46 -8 46 -31 55 -41 17z"/>
<path d="M1154 8875 c3 -9 6 -19 6 -21 0 -2 9 -4 21 -4 29 0 21 34 -10 38 -19
3 -22 0 -17 -13z"/>
<path d="M0 8866 c0 -9 7 -16 16 -16 9 0 14 5 12 12 -6 18 -28 21 -28 4z"/>
<path d="M986 8871 c-4 -6 -2 -11 3 -11 6 0 11 -4 11 -10 0 -5 -7 -10 -15 -10
-8 0 -15 5 -15 12 0 6 -3 9 -6 5 -3 -3 -3 -15 1 -26 8 -25 37 -27 55 -5 11 13
10 18 -7 36 -14 13 -23 16 -27 9z"/>
<path d="M1210 8856 c0 -15 15 -29 35 -32 6 -1 19 -6 30 -10 14 -6 11 1 -12
24 -34 34 -53 41 -53 18z"/>
<path d="M395 8850 c-3 -5 -1 -10 4 -10 6 0 11 5 11 10 0 6 -2 10 -4 10 -3 0
-8 -4 -11 -10z"/>
<path d="M1090 8850 c0 -5 5 -10 11 -10 5 0 7 5 4 10 -3 6 -8 10 -11 10 -2 0
-4 -4 -4 -10z"/>
<path d="M100 8804 c0 -8 5 -12 10 -9 6 3 10 10 10 16 0 5 -4 9 -10 9 -5 0
-10 -7 -10 -16z"/>
<path d="M1166 8786 c3 -9 11 -16 16 -16 13 0 5 23 -10 28 -7 2 -10 -2 -6 -12z"/>
<path d="M345 8760 c3 -5 8 -10 11 -10 2 0 4 5 4 10 0 6 -5 10 -11 10 -5 0 -7
-4 -4 -10z"/>
<path d="M700 8760 c0 -5 5 -10 10 -10 6 0 10 5 10 10 0 6 -4 10 -10 10 -5 0
-10 -4 -10 -10z"/>
<path d="M960 8766 c0 -7 80 -46 95 -46 22 0 18 16 -7 32 -21 13 -88 24 -88
14z"/>
<path d="M906 8734 c5 -18 2 -24 -10 -24 -13 0 -10 -6 11 -25 24 -22 25 -25 8
-23 -12 2 -20 -3 -20 -12 0 -8 -4 -21 -9 -28 -4 -7 -2 -19 5 -28 10 -12 15
-10 30 16 11 17 19 37 19 45 0 8 5 15 10 15 19 0 10 29 -20 58 -29 30 -30 30
-24 6z"/>
<path d="M1085 8729 c-4 -6 -5 -11 -4 -13 34 -22 61 -36 72 -36 8 0 22 -9 32
-20 19 -21 35 -26 35 -11 0 17 -61 71 -81 71 -10 0 -19 5 -19 10 0 13 -27 13
-35 -1z"/>
<path d="M1020 8690 c0 -5 5 -10 11 -10 5 0 7 5 4 10 -3 6 -8 10 -11 10 -2 0
-4 -4 -4 -10z"/>
<path d="M1098 8662 c-10 -2 -18 -9 -18 -16 0 -24 13 -26 28 -5 16 23 14 27
-10 21z"/>
<path d="M697 8653 c-10 -9 -9 -23 2 -23 5 0 11 7 15 15 5 15 -5 20 -17 8z"/>
<path d="M1166 8637 c3 -10 9 -15 12 -12 3 3 0 11 -7 18 -10 9 -11 8 -5 -6z"/>
<path d="M674 8593 c4 -16 8 -36 10 -45 4 -29 13 -30 20 -2 5 17 1 35 -9 50
-21 32 -29 30 -21 -3z"/>
<path d="M1006 8602 c-2 -4 -1 -14 4 -22 5 -8 6 -26 3 -39 -4 -17 -2 -22 6
-17 13 9 15 86 2 86 -6 0 -12 -4 -15 -8z"/>
<path d="M1087 8593 c-2 -5 2 -23 10 -41 12 -29 15 -31 28 -18 12 12 13 20 3
40 -11 25 -32 34 -41 19z"/>
<path d="M8920 8580 c0 -19 3 -21 12 -12 9 9 9 15 0 24 -9 9 -12 7 -12 -12z"/>
<path d="M1150 8540 c0 -5 5 -10 11 -10 5 0 7 5 4 10 -3 6 -8 10 -11 10 -2 0
-4 -4 -4 -10z"/>
<path d="M9136 8321 c-11 -18 5 -81 21 -81 11 0 12 9 7 38 -7 42 -19 59 -28
43z"/>
<path d="M750 8290 c0 -5 5 -10 11 -10 5 0 7 5 4 10 -3 6 -8 10 -11 10 -2 0
-4 -4 -4 -10z"/>
<path d="M20 8240 c0 -5 5 -10 10 -10 6 0 10 5 10 10 0 6 -4 10 -10 10 -5 0
-10 -4 -10 -10z"/>
<path d="M845 8180 c3 -5 8 -10 11 -10 2 0 4 5 4 10 0 6 -5 10 -11 10 -5 0 -7
-4 -4 -10z"/>
<path d="M6 7880 c4 -14 11 -26 15 -28 5 -2 9 -12 9 -23 0 -10 5 -19 10 -19 6
0 8 11 4 25 -5 19 -2 25 11 25 9 0 13 5 10 10 -3 6 -17 10 -30 10 -13 0 -26 6
-29 13 -3 6 -3 1 0 -13z"/>
<path d="M9330 7870 c0 -11 5 -20 10 -20 6 0 10 9 10 20 0 11 -4 20 -10 20 -5
0 -10 -9 -10 -20z"/>
<path d="M1870 7870 c0 -5 5 -10 10 -10 6 0 10 5 10 10 0 6 -4 10 -10 10 -5 0
-10 -4 -10 -10z"/>
<path d="M260 7824 c0 -8 5 -12 10 -9 6 4 8 11 5 16 -9 14 -15 11 -15 -7z"/>
<path d="M1887 7763 c-2 -5 -3 -21 -2 -38 2 -33 18 -40 24 -9 2 10 7 24 12 30
5 6 6 14 2 17 -9 9 -31 9 -36 0z"/>
<path d="M1813 7743 c-7 -2 -13 -11 -13 -19 0 -16 -16 -19 -25 -4 -8 13 -35
13 -35 1 0 -5 7 -17 16 -26 15 -14 18 -14 33 0 10 8 25 15 33 15 13 0 28 19
28 36 0 5 -21 4 -37 -3z"/>
<path d="M1560 7685 c0 -18 5 -25 20 -25 24 0 28 35 4 44 -23 9 -24 8 -24 -19z"/>
<path d="M2322 7688 c3 -7 12 -14 21 -16 12 -2 15 1 11 12 -7 19 -38 22 -32 4z"/>
<path d="M9274 7684 c3 -9 6 -18 6 -20 0 -2 4 -4 9 -4 5 0 7 9 4 20 -3 11 -10
20 -15 20 -6 0 -7 -7 -4 -16z"/>
<path d="M294 7636 c11 -57 25 -88 36 -81 12 7 3 46 -13 56 -5 4 -7 14 -4 22
3 9 -1 21 -10 29 -14 12 -15 9 -9 -26z"/>
<path d="M1882 7648 c2 -12 9 -23 16 -26 18 -6 15 35 -4 42 -11 4 -15 0 -12
-16z"/>
<path d="M9110 7640 c0 -5 5 -10 11 -10 5 0 7 5 4 10 -3 6 -8 10 -11 10 -2 0
-4 -4 -4 -10z"/>
<path d="M9287 7643 c-11 -10 -8 -20 8 -27 10 -4 15 1 15 14 0 20 -11 26 -23
13z"/>
<path d="M1955 7584 c-10 -15 -22 -23 -31 -20 -9 3 -14 -1 -14 -12 0 -10 -5
-23 -12 -30 -20 -20 3 -31 50 -25 34 5 46 11 53 30 5 14 5 32 0 41 -4 9 -6 23
-4 30 9 23 -25 12 -42 -14z"/>
<path d="M9040 7507 c14 -8 27 -12 30 -10 7 6 -23 23 -40 23 -8 0 -4 -6 10
-13z"/>
<path d="M8995 7501 c-3 -5 -1 -12 5 -16 5 -3 10 1 10 9 0 18 -6 21 -15 7z"/>
<path d="M580 7460 c0 -5 7 -10 15 -10 8 0 15 5 15 10 0 6 -7 10 -15 10 -8 0
-15 -4 -15 -10z"/>
<path d="M8865 7430 c-3 -5 -1 -10 4 -10 6 0 11 5 11 10 0 6 -2 10 -4 10 -3 0
-8 -4 -11 -10z"/>
<path d="M8810 7410 c0 -5 7 -10 16 -10 8 0 12 5 9 10 -3 6 -10 10 -16 10 -5
0 -9 -4 -9 -10z"/>
<path d="M855 7400 c-3 -5 -1 -10 4 -10 6 0 11 5 11 10 0 6 -2 10 -4 10 -3 0
-8 -4 -11 -10z"/>
<path d="M1700 7306 c0 -9 5 -16 10 -16 6 0 10 4 10 9 0 6 -4 13 -10 16 -5 3
-10 -1 -10 -9z"/>
<path d="M705 7281 c-3 -5 -1 -12 5 -16 12 -7 30 2 30 16 0 12 -27 12 -35 0z"/>
<path d="M1703 7243 c-3 -10 -15 -29 -27 -42 -12 -13 -15 -21 -8 -17 6 4 12 2
12 -3 0 -8 7 -7 19 1 11 7 18 15 15 19 -2 4 0 10 6 14 13 8 13 45 0 45 -6 0
-13 -8 -17 -17z"/>
<path d="M1596 7233 c-4 -9 -2 -21 4 -27 7 -7 10 -7 10 1 0 6 3 18 6 27 3 9 2
16 -4 16 -5 0 -13 -8 -16 -17z"/>
<path d="M1432 7109 c2 -6 8 -10 13 -10 5 0 11 4 13 10 2 6 -4 11 -13 11 -9 0
-15 -5 -13 -11z"/>
<path d="M1661 7096 c-9 -11 -9 -16 0 -21 10 -7 28 10 29 28 0 12 -17 8 -29
-7z"/>
<path d="M1034 7043 c-16 -14 -30 -25 -32 -24 -2 1 -6 0 -9 -3 -4 -3 5 -6 18
-6 31 1 76 37 62 51 -6 6 -20 0 -39 -18z"/>
<path d="M1717 7050 c-3 -10 1 -26 7 -35 11 -15 13 -15 25 -2 10 12 10 20 -1
36 -16 26 -24 26 -31 1z"/>
<path d="M970 7050 c0 -5 5 -10 10 -10 6 0 10 5 10 10 0 6 -4 10 -10 10 -5 0
-10 -4 -10 -10z"/>
<path d="M1806 7043 c-9 -9 -7 -81 2 -87 5 -3 16 4 25 15 13 14 15 24 8 38 -6
10 -8 21 -5 23 3 3 -2 8 -10 11 -8 3 -17 3 -20 0z"/>
<path d="M1090 7016 c0 -10 8 -16 22 -16 12 0 19 1 17 3 -2 1 -12 9 -21 16
-15 12 -18 11 -18 -3z"/>
<path d="M1665 6981 c-3 -5 -1 -12 4 -15 5 -3 11 1 15 9 6 16 -9 21 -19 6z"/>
<path d="M1469 6938 c4 -12 13 -24 19 -26 18 -6 14 35 -4 42 -23 9 -24 8 -15
-16z"/>
<path d="M1430 6920 c0 -5 5 -10 10 -10 6 0 10 5 10 10 0 6 -4 10 -10 10 -5 0
-10 -4 -10 -10z"/>
<path d="M1717 6914 c-4 -4 -7 -17 -7 -28 1 -19 1 -20 11 -3 11 19 8 43 -4 31z"/>
<path d="M1090 6881 c0 -5 7 -11 14 -14 10 -4 13 -1 9 9 -6 15 -23 19 -23 5z"/>
<path d="M1220 6881 c0 -5 7 -12 16 -15 14 -5 15 -4 4 9 -14 17 -20 19 -20 6z"/>
<path d="M1392 6833 c5 -25 28 -28 28 -4 0 12 -6 21 -16 21 -9 0 -14 -7 -12
-17z"/>
<path d="M1550 6776 c0 -8 5 -18 10 -21 6 -3 10 3 10 14 0 12 -4 21 -10 21 -5
0 -10 -6 -10 -14z"/>
<path d="M1175 6770 c-3 -5 -1 -10 4 -10 6 0 11 5 11 10 0 6 -2 10 -4 10 -3 0
-8 -4 -11 -10z"/>
<path d="M1195 6721 c-3 -5 -1 -12 5 -16 5 -3 10 1 10 9 0 18 -6 21 -15 7z"/>
<path d="M1775 6680 c-3 -6 1 -7 9 -4 18 7 21 14 7 14 -6 0 -13 -4 -16 -10z"/>
<path d="M1435 6630 c-3 -5 1 -10 10 -10 9 0 13 5 10 10 -3 6 -8 10 -10 10 -2
0 -7 -4 -10 -10z"/>
<path d="M1660 6574 c0 -3 6 -12 14 -20 16 -15 32 -2 21 16 -7 11 -35 14 -35
4z"/>
<path d="M1551 6498 c-1 -20 4 -28 15 -28 12 0 14 4 7 13 -6 6 -13 19 -16 27
-3 9 -6 3 -6 -12z"/>
<path d="M1410 6499 c0 -5 5 -7 10 -4 6 3 10 8 10 11 0 2 -4 4 -10 4 -5 0 -10
-5 -10 -11z"/>
<path d="M1661 6474 c0 -11 3 -14 6 -6 3 7 2 16 -1 19 -3 4 -6 -2 -5 -13z"/>
<path d="M1765 6480 c-3 -5 -1 -10 4 -10 6 0 11 5 11 10 0 6 -2 10 -4 10 -3 0
-8 -4 -11 -10z"/>
<path d="M1485 6410 c3 -5 11 -10 16 -10 6 0 7 5 4 10 -3 6 -11 10 -16 10 -6
0 -7 -4 -4 -10z"/>
<path d="M1520 6400 c0 -5 5 -10 10 -10 6 0 10 5 10 10 0 6 -4 10 -10 10 -5 0
-10 -4 -10 -10z"/>
<path d="M1705 6389 c-10 -15 3 -25 16 -12 7 7 7 13 1 17 -6 3 -14 1 -17 -5z"/>
<path d="M1620 6334 c0 -8 5 -12 10 -9 6 4 8 11 5 16 -9 14 -15 11 -15 -7z"/>
<path d="M1670 6315 c0 -8 4 -15 10 -15 5 0 7 7 4 15 -4 8 -8 15 -10 15 -2 0
-4 -7 -4 -15z"/>
<path d="M1710 6290 c0 -5 5 -10 10 -10 6 0 10 5 10 10 0 6 -4 10 -10 10 -5 0
-10 -4 -10 -10z"/>
<path d="M7928 4373 c7 -3 16 -2 19 1 4 3 -2 6 -13 5 -11 0 -14 -3 -6 -6z"/>
<path d="M7943 4233 c-7 -3 -9 -11 -6 -19 6 -16 51 -18 73 -3 13 9 12 10 -2 5
-10 -3 -18 -1 -18 3 0 5 6 11 13 14 6 2 -1 4 -18 4 -16 0 -35 -2 -42 -4z"/>
<path d="M8285 4180 c3 -5 8 -10 11 -10 2 0 4 5 4 10 0 6 -5 10 -11 10 -5 0
-7 -4 -4 -10z"/>
<path d="M7600 4160 c0 -5 7 -10 15 -10 8 0 15 5 15 10 0 6 -7 10 -15 10 -8 0
-15 -4 -15 -10z"/>
<path d="M7560 4030 c0 -5 5 -10 10 -10 6 0 10 5 10 10 0 6 -4 10 -10 10 -5 0
-10 -4 -10 -10z"/>
<path d="M7610 4005 c7 -9 15 -13 17 -11 7 7 -7 26 -19 26 -6 0 -6 -6 2 -15z"/>
<path d="M8580 3916 c0 -9 5 -16 10 -16 6 0 10 4 10 9 0 6 -4 13 -10 16 -5 3
-10 -1 -10 -9z"/>
<path d="M8450 3881 c0 -5 7 -12 16 -15 14 -5 15 -4 4 9 -14 17 -20 19 -20 6z"/>
<path d="M8630 3855 c0 -16 27 -32 37 -21 7 7 -16 36 -28 36 -5 0 -9 -7 -9
-15z"/>
<path d="M8755 3820 c3 -5 8 -10 11 -10 2 0 4 5 4 10 0 6 -5 10 -11 10 -5 0
-7 -4 -4 -10z"/>
<path d="M8586 3794 c-10 -26 -7 -32 17 -40 12 -4 25 -12 29 -18 14 -21 8 14
-7 44 -17 33 -30 38 -39 14z"/>
<path d="M8885 3759 c-4 -5 7 -15 24 -22 21 -8 31 -18 31 -33 0 -28 19 -42 50
-35 45 10 36 38 -20 63 -27 12 -50 25 -50 30 0 12 -28 10 -35 -3z"/>
<path d="M8754 3735 c-4 -8 -13 -15 -22 -15 -12 0 -13 -3 -4 -12 9 -9 15 -9
24 0 17 17 48 15 48 -3 0 -8 4 -15 9 -15 12 0 1 43 -13 52 -18 12 -36 9 -42
-7z"/>
<path d="M8650 3666 c0 -8 5 -18 10 -21 6 -3 10 3 10 14 0 12 -4 21 -10 21 -5
0 -10 -6 -10 -14z"/>
<path d="M8774 3656 c-9 -19 -8 -27 5 -40 48 -47 55 -56 44 -67 -8 -8 -18 -6
-37 6 -14 10 -26 21 -26 25 0 10 -58 40 -77 40 -21 0 -15 -16 13 -30 22 -12
41 -54 34 -76 -3 -12 23 -23 72 -29 60 -9 70 -2 52 34 -11 22 -12 35 -4 56 6
15 8 30 5 33 -3 3 -5 0 -5 -6 0 -7 -6 -12 -14 -12 -15 0 -15 28 -1 51 4 6 -2
13 -14 16 -12 3 -21 9 -21 14 0 17 -15 9 -26 -15z"/>
<path d="M9015 3660 c-9 -15 4 -31 23 -28 12 2 18 -5 20 -27 3 -24 33 -59 52
-60 16 -1 31 -19 26 -32 -9 -22 17 -10 29 13 14 28 49 19 41 -10 -7 -29 3 -66
18 -66 18 0 56 -47 56 -70 0 -16 5 -19 23 -15 17 4 25 0 34 -21 7 -15 9 -32 5
-38 -4 -6 -7 -22 -7 -36 0 -14 -5 -25 -12 -25 -6 0 -15 -3 -19 -7 -4 -5 -2 -8
4 -8 7 0 12 -11 12 -25 0 -31 35 -53 44 -28 4 9 2 21 -4 27 -7 7 -10 6 -10 -4
0 -7 -3 -11 -6 -8 -3 4 -1 16 6 27 8 16 15 19 27 13 17 -10 56 -110 47 -123
-3 -5 0 -9 6 -9 7 0 9 -7 6 -15 -4 -11 3 -19 19 -25 14 -5 25 -14 25 -21 0 -6
16 -30 36 -55 26 -31 34 -49 29 -61 -5 -10 -7 -26 -6 -35 1 -11 -4 -18 -13
-18 -9 0 -16 6 -16 14 0 8 -7 16 -15 20 -8 3 -15 15 -15 26 0 11 -8 23 -17 27
-10 3 -30 19 -45 34 -14 16 -38 31 -52 35 -15 3 -35 17 -46 31 -11 14 -33 26
-55 30 -41 7 -54 25 -35 48 10 12 16 13 26 4 26 -21 15 10 -18 56 -37 49 -44
52 -70 28 -21 -19 -36 -10 -18 11 10 13 9 19 -5 33 -28 27 -45 25 -45 -6 0
-27 32 -65 58 -67 6 -1 18 -2 26 -2 17 -2 31 -51 17 -65 -5 -5 -7 -23 -4 -39
4 -21 2 -28 -8 -26 -7 2 -15 -5 -17 -14 -2 -11 2 -18 12 -18 9 0 16 -7 16 -15
0 -22 -14 -19 -48 10 -35 29 -42 31 -42 10 0 -16 37 -74 54 -86 5 -4 5 -15 1
-25 -10 -23 -7 -47 7 -55 6 -4 8 -15 4 -25 -6 -16 -9 -15 -31 9 -14 14 -25 35
-25 47 0 23 -13 26 -27 8 -14 -18 -25 -68 -15 -68 5 0 9 -13 9 -29 0 -17 6
-37 13 -47 8 -9 16 -28 18 -43 2 -14 7 -30 13 -36 5 -5 9 -23 9 -41 0 -18 6
-34 12 -36 9 -3 8 -10 -5 -22 -16 -17 -20 -16 -80 21 -34 22 -71 37 -81 35
-14 -3 -17 0 -13 12 9 23 -6 20 -21 -4 -10 -17 -10 -20 5 -20 13 0 14 -3 5
-12 -9 -9 -18 -9 -37 0 -36 17 -60 15 -76 -5 -8 -9 -9 -14 -3 -10 11 6 71 -67
72 -88 1 -14 -29 -6 -50 12 -10 9 -18 13 -18 8 0 -4 -7 -2 -16 6 -13 10 -17
10 -24 -1 -4 -7 -15 -10 -25 -7 -27 11 -14 -35 15 -50 28 -15 28 -29 -1 -54
-17 -14 -17 -18 -4 -29 9 -8 13 -21 9 -36 -5 -20 -2 -24 15 -24 12 0 21 -6 21
-14 0 -13 56 -46 79 -46 6 0 11 7 11 15 0 8 7 15 15 15 8 0 15 -5 15 -12 0 -6
8 -20 17 -30 17 -19 16 -20 -6 -37 -29 -22 -24 -42 16 -68 58 -37 69 -71 23
-69 -24 1 -29 5 -24 19 6 18 0 20 -31 8 -11 -5 -29 -4 -40 2 -20 10 -83 12
-93 2 -3 -3 2 -11 11 -18 23 -17 12 -98 -14 -104 -11 -3 -19 -10 -19 -15 0 -5
-4 -6 -10 -3 -16 10 -12 -21 5 -35 13 -10 15 -9 15 10 0 26 23 22 29 -5 1 -10
12 -27 22 -38 27 -29 24 -47 -11 -54 -34 -6 -34 -7 -20 -34 9 -15 7 -21 -5
-25 -14 -6 -14 -8 1 -25 9 -11 23 -19 31 -19 8 0 11 -4 8 -10 -4 -6 8 -10 30
-10 32 0 36 -3 33 -22 -3 -18 2 -22 27 -21 19 0 29 4 27 13 -2 7 3 10 11 7 19
-7 42 9 42 30 0 11 7 18 18 17 57 -3 67 -5 67 -18 0 -7 -8 -16 -18 -18 -11 -3
-18 -16 -20 -34 -1 -16 -11 -36 -22 -46 -25 -20 -25 -28 -1 -28 11 0 23 -5 26
-10 11 -18 34 -10 37 13 3 22 4 21 32 -8 l28 -30 -26 -3 c-14 -2 -31 -12 -36
-22 -8 -15 -21 -19 -64 -19 -65 1 -103 -15 -85 -37 9 -11 8 -14 -8 -14 -15 0
-53 31 -53 44 0 2 16 6 36 9 51 8 60 20 56 66 -4 36 -7 41 -31 42 -14 1 -32 1
-39 0 -8 -1 -23 5 -33 15 -17 16 -19 16 -19 1 0 -9 -9 -22 -20 -29 -11 -7 -20
-19 -20 -26 0 -16 -24 -42 -39 -42 -6 0 -15 -9 -21 -19 -13 -25 -13 -42 1 -18
15 26 39 21 39 -8 0 -30 18 -64 43 -83 9 -7 17 -24 17 -38 0 -18 6 -24 23 -26
12 0 33 -3 47 -5 90 -12 133 -12 156 3 15 11 24 12 24 5 0 -6 -12 -16 -27 -22
-60 -24 -72 -32 -77 -52 -6 -26 -4 -29 31 -33 40 -5 63 5 63 26 0 29 11 50 26
50 8 0 14 -6 14 -14 0 -15 34 -31 48 -22 4 2 14 1 20 -3 13 -8 5 -38 -20 -73
-15 -20 4 -48 34 -48 10 0 17 -4 13 -9 -3 -6 4 -15 15 -21 20 -11 20 -13 6
-34 -16 -25 -6 -46 21 -46 7 0 13 -6 13 -14 0 -7 9 -16 20 -19 11 -3 20 -12
20 -21 0 -20 48 -32 71 -17 24 15 29 14 29 -4 0 -8 -6 -12 -13 -9 -17 6 -42
-22 -28 -30 5 -3 7 -16 3 -28 -4 -16 -2 -19 9 -12 23 14 41 14 35 -1 -2 -7 1
-16 9 -18 7 -3 15 3 18 14 6 21 27 26 27 6 0 -7 -5 -18 -11 -24 -7 -7 -4 -12
10 -16 20 -5 51 27 51 53 0 5 7 10 15 10 13 0 15 140 15 1135 0 922 -2 1135
-13 1135 -7 0 -21 14 -30 30 -10 17 -23 30 -29 30 -6 0 -26 11 -44 25 -18 14
-41 25 -51 25 -13 0 -22 11 -28 33 -8 25 -16 33 -37 35 -28 3 -36 16 -18 27
16 10 70 15 68 7 -3 -14 14 -42 26 -42 6 0 20 -14 30 -30 9 -17 35 -42 57 -56
22 -13 45 -37 51 -52 l12 -27 4 28 c2 20 -6 38 -32 69 -20 23 -36 45 -36 50 0
4 -7 8 -15 8 -9 0 -18 7 -21 15 -4 8 -11 15 -16 15 -6 0 -20 10 -32 23 -60 61
-114 86 -101 47 11 -35 -25 -23 -62 20 -19 22 -41 40 -49 40 -8 0 -17 7 -21
16 -3 8 -12 13 -19 10 -7 -3 -21 5 -32 18 -10 13 -28 27 -40 30 -12 4 -30 18
-38 32 -17 24 -48 32 -59 14z m243 -933 c2 -15 -1 -27 -7 -27 -6 0 -11 6 -11
14 0 8 -3 22 -7 32 -4 12 -2 15 8 12 8 -2 15 -17 17 -31z m-81 -174 c4 -10 16
-25 27 -34 20 -17 15 -39 -10 -39 -8 0 -14 8 -14 18 0 11 -9 27 -20 37 -11 10
-17 22 -14 26 9 15 24 10 31 -8z m-254 -86 c30 -11 19 -27 -19 -27 -34 0 -70
21 -57 34 3 3 1 12 -5 19 -21 25 0 27 32 3 17 -13 39 -26 49 -29z m227 -30 c0
-20 -48 -43 -61 -30 -12 12 5 28 36 36 11 2 21 5 23 6 1 0 2 -5 2 -12z m-310
-48 c0 -14 -16 -11 -29 5 -10 12 -8 13 8 9 12 -3 21 -9 21 -14z m80 -24 c0 -8
-4 -15 -9 -15 -13 0 -22 16 -14 24 11 11 23 6 23 -9z m130 -185 c0 -5 -2 -10
-4 -10 -3 0 -8 5 -11 10 -3 6 -1 10 4 10 6 0 11 -4 11 -10z m-159 -94 c5 3 23
3 39 -1 37 -8 40 -35 4 -35 -35 0 -64 17 -63 38 0 10 3 12 6 4 2 -6 9 -10 14
-6z m209 -42 c0 -12 5 -26 10 -29 6 -3 10 -10 10 -14 0 -10 -50 -2 -65 10 -6
4 -19 1 -29 -7 -27 -19 -72 -18 -80 2 -11 30 -6 34 44 34 42 0 50 3 50 18 0
15 6 18 30 14 23 -3 30 -9 30 -28z m160 -22 c0 -14 -11 -21 -26 -15 -8 3 -11
9 -8 14 7 11 34 12 34 1z m-380 -54 l0 -33 -14 25 c-13 26 -12 40 5 40 5 0 9
-15 9 -32z m130 -78 c0 -11 -4 -20 -10 -20 -5 0 -10 9 -10 20 0 11 5 20 10 20
6 0 10 -9 10 -20z m60 -29 c0 -14 -28 -33 -40 -26 -20 12 -10 35 15 35 14 0
25 -4 25 -9z m-160 -52 c0 -5 -4 -9 -10 -9 -5 0 -10 7 -10 16 0 8 5 12 10 9 6
-3 10 -10 10 -16z m34 -4 c-4 -8 -10 -12 -15 -9 -11 6 -2 24 11 24 5 0 7 -7 4
-15z m132 -22 c-10 -10 -19 5 -10 18 6 11 8 11 12 0 2 -7 1 -15 -2 -18z m-56
7 c0 -5 -5 -10 -11 -10 -5 0 -7 5 -4 10 3 6 8 10 11 10 2 0 4 -4 4 -10z m180
-140 c0 -5 -7 -10 -16 -10 -8 0 -12 5 -9 10 3 6 10 10 16 10 5 0 9 -4 9 -10z
m-280 -20 c0 -13 -28 -25 -38 -16 -3 4 0 11 8 16 20 13 30 12 30 0z m-44 -46
c-4 -9 -2 -22 4 -29 7 -9 3 -12 -17 -11 -32 1 -40 18 -18 40 21 21 39 21 31 0z
m321 -78 c-2 -6 -16 -18 -30 -26 -22 -12 -30 -13 -47 -2 -11 6 -27 12 -36 12
-8 0 -14 6 -11 13 2 6 18 12 35 12 16 0 33 3 36 6 11 10 57 -3 53 -15z m-277
-15 c0 -24 -31 -32 -55 -15 -18 13 -18 14 2 14 12 0 25 5 28 10 10 17 25 11
25 -9z m330 -9 c0 -13 -12 -22 -22 -16 -10 6 -1 24 13 24 5 0 9 -4 9 -8z m85
-22 c3 -5 2 -10 -4 -10 -5 0 -13 5 -16 10 -3 6 -2 10 4 10 5 0 13 -4 16 -10z
m140 -20 c4 -6 -5 -10 -19 -10 -14 0 -26 5 -26 10 0 6 9 10 19 10 11 0 23 -4
26 -10z m-271 -27 c5 -11 1 -22 -10 -30 -27 -20 -34 -16 -34 17 0 23 5 30 19
30 10 0 22 -8 25 -17z m-101 -18 c-6 -17 -25 -15 -31 3 -2 7 5 12 17 12 14 0
19 -5 14 -15z m187 -105 c0 -5 -6 -10 -14 -10 -8 0 -18 5 -21 10 -3 6 3 10 14
10 12 0 21 -4 21 -10z m60 -155 c9 -10 9 -15 1 -15 -6 0 -11 -8 -11 -17 -1
-14 -4 -12 -15 7 -8 14 -14 28 -15 33 0 13 27 8 40 -8z"/>
<path d="M6840 3619 c0 -5 5 -7 10 -4 6 3 10 8 10 11 0 2 -4 4 -10 4 -5 0 -10
-5 -10 -11z"/>
<path d="M8915 3600 c-3 -5 -1 -10 4 -10 6 0 11 5 11 10 0 6 -2 10 -4 10 -3 0
-8 -4 -11 -10z"/>
<path d="M9020 3600 c0 -5 5 -10 10 -10 6 0 10 5 10 10 0 6 -4 10 -10 10 -5 0
-10 -4 -10 -10z"/>
<path d="M6640 3571 c0 -16 28 -20 40 -5 10 12 8 14 -14 14 -14 0 -26 -4 -26
-9z"/>
<path d="M8908 3541 c7 -4 14 -16 16 -25 3 -21 25 -36 43 -29 21 8 15 28 -16
46 -30 17 -70 25 -43 8z"/>
<path d="M8890 3455 c-10 -12 -16 -13 -27 -4 -11 10 -12 8 -7 -5 5 -13 13 -16
33 -11 33 8 37 13 24 26 -7 7 -14 5 -23 -6z"/>
<path d="M9010 3440 c0 -5 5 -10 10 -10 6 0 10 5 10 10 0 6 -4 10 -10 10 -5 0
-10 -4 -10 -10z"/>
<path d="M9000 3406 c0 -18 -22 -26 -51 -19 -15 4 -20 3 -15 -5 4 -7 17 -12
30 -12 12 0 26 -4 32 -9 5 -4 26 -11 46 -14 34 -5 36 -4 29 16 -5 14 -17 22
-32 22 -17 0 -24 5 -23 18 1 9 -2 17 -7 17 -5 0 -9 -6 -9 -14z"/>
<path d="M8970 3340 c0 -5 5 -10 10 -10 6 0 10 5 10 10 0 6 -4 10 -10 10 -5 0
-10 -4 -10 -10z"/>
<path d="M9291 3204 c0 -11 3 -14 6 -6 3 7 2 16 -1 19 -3 4 -6 -2 -5 -13z"/>
<path d="M9357 3149 c-9 -6 -17 -16 -17 -24 0 -10 5 -11 25 -2 14 7 25 15 25
19 0 13 -16 16 -33 7z"/>
<path d="M9092 3101 c4 -13 18 -16 19 -4 0 4 -5 9 -11 12 -7 2 -11 -2 -8 -8z"/>
<path d="M9120 3070 c0 -5 5 -10 10 -10 6 0 10 5 10 10 0 6 -4 10 -10 10 -5 0
-10 -4 -10 -10z"/>
<path d="M6205 3060 c-3 -5 -1 -10 4 -10 6 0 11 5 11 10 0 6 -2 10 -4 10 -3 0
-8 -4 -11 -10z"/>
<path d="M6101 2902 c-17 -17 -6 -43 14 -36 11 5 18 0 22 -15 6 -23 11 -25 31
-13 9 6 4 18 -21 43 -28 29 -36 32 -46 21z"/>
<path d="M6060 2885 c-7 -9 -11 -18 -8 -20 3 -3 11 1 18 10 7 9 11 18 8 20 -3
3 -11 -1 -18 -10z"/>
<path d="M6000 2860 c0 -5 5 -10 11 -10 5 0 7 5 4 10 -3 6 -8 10 -11 10 -2 0
-4 -4 -4 -10z"/>
<path d="M6220 2740 c0 -5 5 -10 10 -10 6 0 10 5 10 10 0 6 -4 10 -10 10 -5 0
-10 -4 -10 -10z"/>
<path d="M9030 2705 c0 -17 7 -28 23 -34 32 -13 38 -4 19 29 -21 37 -42 39
-42 5z"/>
<path d="M5905 2650 c-3 -5 -15 -10 -25 -10 -18 0 -18 -1 1 -40 11 -23 27 -40
37 -41 13 0 11 -3 -5 -9 -13 -5 -23 -17 -23 -26 0 -13 6 -15 27 -9 44 11 47
11 49 0 6 -38 18 -75 24 -75 5 0 19 -17 31 -37 13 -21 33 -46 45 -56 13 -9 30
-39 40 -65 10 -26 28 -63 40 -82 12 -20 25 -50 29 -68 5 -24 12 -32 28 -32 20
1 21 2 5 14 -23 17 -12 26 23 19 24 -5 29 -2 29 15 0 11 7 22 16 24 13 3 12 7
-6 28 -12 14 -26 26 -31 26 -22 3 -23 5 -9 14 12 8 12 10 -3 16 -9 3 -17 16
-17 28 0 20 -36 53 -52 48 -5 -1 -8 9 -8 23 0 18 -7 28 -25 35 -14 5 -25 15
-25 21 0 6 -9 23 -19 37 -10 15 -19 32 -20 37 -1 6 -9 10 -19 11 -42 2 -48 6
-59 31 -9 19 -10 29 -2 34 8 4 6 15 -6 33 -15 23 -33 31 -58 27 -5 -1 -6 3 -3
8 3 5 15 7 26 4 24 -6 27 12 4 21 -22 8 -32 8 -39 -4z m42 -66 c-3 -3 -12 -4
-19 -1 -8 3 -5 6 6 6 11 1 17 -2 13 -5z"/>
<path d="M6310 2652 c0 -11 27 -42 37 -42 3 0 -2 10 -13 23 -10 12 -20 24 -21
26 -2 2 -3 -1 -3 -7z"/>
<path d="M5809 2575 c-3 -2 -14 -6 -25 -8 -10 -2 -29 -9 -41 -17 -26 -17 -32
-45 -7 -36 9 3 18 6 20 6 2 0 4 6 4 13 0 8 15 12 42 12 33 0 43 4 46 18 2 11
-3 17 -16 17 -10 0 -21 -2 -23 -5z"/>
<path d="M6010 2550 c-9 -6 -10 -10 -3 -10 6 0 15 5 18 10 8 12 4 12 -15 0z"/>
<path d="M6681 2454 c0 -11 3 -14 6 -6 3 7 2 16 -1 19 -3 4 -6 -2 -5 -13z"/>
<path d="M8816 2215 c4 -8 12 -15 20 -15 19 0 18 16 -2 24 -22 9 -24 8 -18 -9z"/>
<path d="M8810 2181 c0 -16 26 -31 55 -30 26 0 27 2 10 9 -11 5 -14 9 -7 9 28
2 9 16 -23 18 -19 1 -35 -2 -35 -6z"/>
<path d="M8716 2124 c-10 -38 7 -51 46 -36 17 6 34 9 38 7 4 -2 7 8 6 23 -1
29 -17 35 -44 18 -7 -4 -19 -3 -26 3 -11 9 -15 6 -20 -15z"/>
<path d="M6197 2083 c-4 -3 -7 -17 -7 -30 0 -26 27 -32 36 -8 4 8 14 15 23 15
14 1 13 3 -3 15 -21 16 -39 19 -49 8z"/>
<path d="M6890 2060 c0 -5 5 -10 10 -10 6 0 10 5 10 10 0 6 -4 10 -10 10 -5 0
-10 -4 -10 -10z"/>
<path d="M8728 2063 c6 -2 18 -2 25 0 6 3 1 5 -13 5 -14 0 -19 -2 -12 -5z"/>
<path d="M8118 1981 c-26 -26 -22 -31 23 -31 43 0 48 13 13 36 -16 10 -22 9
-36 -5z"/>
<path d="M6240 1974 c0 -22 87 -124 107 -124 7 0 13 -4 13 -10 0 -5 5 -10 10
-10 18 0 10 29 -10 35 -11 3 -20 11 -20 16 0 5 -11 14 -25 19 -16 6 -23 14
-19 25 4 8 1 15 -6 15 -6 0 -20 10 -31 23 -10 12 -18 17 -19 11z"/>
<path d="M6000 1950 c0 -5 5 -10 11 -10 5 0 7 5 4 10 -3 6 -8 10 -11 10 -2 0
-4 -4 -4 -10z"/>
<path d="M8420 1900 c0 -5 5 -10 10 -10 6 0 10 5 10 10 0 6 -4 10 -10 10 -5 0
-10 -4 -10 -10z"/>
<path d="M8475 1894 c-17 -13 -16 -14 18 -14 41 0 46 5 19 19 -12 6 -23 5 -37
-5z"/>
<path d="M7731 1798 c1 -18 3 -25 6 -15 2 9 8 17 13 17 5 0 7 7 4 15 -11 27
-24 16 -23 -17z"/>
<path d="M8606 1611 c-4 -7 -5 -15 -2 -18 9 -9 19 4 14 18 -4 11 -6 11 -12 0z"/>
<path d="M8755 1600 c-3 -5 1 -10 9 -10 9 0 16 5 16 10 0 6 -4 10 -9 10 -6 0
-13 -4 -16 -10z"/>
<path d="M7190 1567 c0 -19 16 -31 24 -18 3 5 -1 14 -9 21 -12 10 -15 10 -15
-3z"/>
<path d="M8640 1546 c0 -9 5 -16 10 -16 6 0 10 4 10 9 0 6 -4 13 -10 16 -5 3
-10 -1 -10 -9z"/>
<path d="M8583 1494 c-3 -8 2 -23 11 -32 15 -15 16 -14 16 16 0 33 -16 43 -27
16z"/>
<path d="M8714 1479 c-8 -14 18 -31 30 -19 9 9 0 30 -14 30 -5 0 -12 -5 -16
-11z"/>
<path d="M9061 1207 c-5 -13 -20 -27 -33 -30 -22 -6 -22 -7 -5 -24 17 -17 19
-17 31 0 12 15 18 16 40 6 24 -11 30 -10 53 13 30 30 23 52 -16 45 -14 -3 -34
-1 -43 4 -15 8 -20 5 -27 -14z"/>
<path d="M9186 831 c-4 -5 -2 -12 3 -15 5 -4 12 -2 15 3 4 5 2 12 -3 15 -5 4
-12 2 -15 -3z"/>
<path d="M6746 521 c-19 -64 -19 -61 -6 -61 19 0 39 56 31 86 -8 28 -9 27 -25
-25z"/>
<path d="M7080 550 c0 -5 5 -10 11 -10 5 0 7 5 4 10 -3 6 -8 10 -11 10 -2 0
-4 -4 -4 -10z"/>
<path d="M8850 535 c0 -8 2 -15 4 -15 2 0 6 7 10 15 3 8 1 15 -4 15 -6 0 -10
-7 -10 -15z"/>
<path d="M7801 478 c-22 -20 -30 -33 -23 -40 20 -20 46 -4 53 32 4 19 7 36 6
37 -1 1 -17 -12 -36 -29z"/>
<path d="M9000 500 c0 -5 7 -10 16 -10 10 0 14 -6 11 -14 -6 -15 50 -29 59
-14 3 4 -2 8 -10 8 -9 0 -25 9 -36 20 -22 22 -40 26 -40 10z"/>
<path d="M9060 495 c33 -19 51 -19 44 0 -4 9 -19 15 -38 15 l-31 -1 25 -14z"/>
<path d="M8940 490 c0 -5 5 -10 10 -10 6 0 10 5 10 10 0 6 -4 10 -10 10 -5 0
-10 -4 -10 -10z"/>
<path d="M7920 479 c0 -5 11 -9 25 -9 14 0 25 2 25 4 0 2 -11 6 -25 8 -14 3
-25 1 -25 -3z"/>
<path d="M8055 440 c-13 -5 -14 -9 -5 -9 8 0 24 4 35 9 13 5 14 9 5 9 -8 0
-24 -4 -35 -9z"/>
<path d="M6030 340 c0 -5 5 -10 10 -10 6 0 10 5 10 10 0 6 -4 10 -10 10 -5 0
-10 -4 -10 -10z"/>
<path d="M5951 311 c-11 -7 -10 -12 7 -22 15 -10 20 -20 16 -36 -4 -14 -2 -23
6 -23 6 0 9 -4 5 -9 -3 -5 -1 -12 4 -15 11 -7 35 84 24 94 -15 14 -48 20 -62
11z"/>
<path d="M7776 274 c-3 -8 -10 -13 -15 -10 -17 11 -23 -28 -6 -40 15 -11 15
-13 0 -21 -13 -8 -15 -16 -8 -44 13 -48 44 -51 72 -6 29 47 27 59 -6 51 -25
-7 -27 -6 -14 9 7 10 19 17 27 17 7 0 16 5 20 12 4 7 3 8 -4 4 -7 -4 -12 -2
-12 5 0 11 -28 38 -41 39 -4 0 -10 -7 -13 -16z"/>
<path d="M6901 239 c-16 -26 -17 -35 -8 -51 12 -18 13 -18 30 3 18 23 24 79 7
79 -6 0 -19 -14 -29 -31z"/>
<path d="M7045 250 c3 -5 10 -10 16 -10 5 0 9 5 9 10 0 6 -7 10 -16 10 -8 0
-12 -4 -9 -10z"/>
<path d="M7100 250 c0 -5 5 -10 10 -10 6 0 10 5 10 10 0 6 -4 10 -10 10 -5 0
-10 -4 -10 -10z"/>
<path d="M6673 218 c-27 -30 -55 -86 -50 -101 4 -14 51 34 71 73 19 39 5 56
-21 28z"/>
<path d="M8063 158 c2 -21 -2 -23 -42 -23 -36 0 -46 -4 -54 -22 -6 -13 -15
-23 -22 -23 -21 0 -65 -25 -65 -37 0 -15 26 -18 34 -4 10 16 56 19 64 4 9 -15
42 -8 42 9 0 6 -7 8 -14 5 -10 -4 -13 -1 -10 8 9 22 37 28 50 10 6 -8 22 -14
35 -13 15 2 23 -2 22 -9 -2 -7 5 -13 16 -13 10 0 27 -11 37 -25 19 -26 64 -35
64 -12 0 25 17 39 39 32 27 -8 27 -23 -1 -34 -15 -6 26 -9 117 -10 124 0 138
1 121 14 -15 11 -23 12 -33 3 -16 -13 -28 -4 -28 20 0 13 -8 16 -30 14 -35 -2
-75 16 -75 35 0 7 -12 19 -26 25 -22 10 -31 9 -58 -6 -17 -10 -28 -15 -24 -11
14 15 -11 41 -42 43 -17 1 -49 11 -70 22 -49 25 -50 25 -47 -2z"/>
<path d="M7900 159 c0 -12 8 -16 32 -15 38 2 51 26 14 26 -14 0 -26 -6 -26
-12 0 -9 -4 -8 -10 2 -8 13 -10 13 -10 -1z"/>
<path d="M7858 133 c-10 -2 -18 -8 -18 -13 0 -10 38 -1 46 11 5 9 1 10 -28 2z"/>
<path d="M5825 120 c3 -5 8 -10 11 -10 2 0 4 5 4 10 0 6 -5 10 -11 10 -5 0 -7
-4 -4 -10z"/>
<path d="M8806 83 c-12 -12 -6 -33 9 -33 8 0 15 6 15 14 0 17 -14 28 -24 19z"/>
<path d="M7806 66 c7 -17 54 -23 54 -6 0 6 -6 10 -14 10 -8 0 -22 3 -30 6 -12
5 -15 2 -10 -10z"/>
<path d="M8781 64 c0 -11 3 -14 6 -6 3 7 2 16 -1 19 -3 4 -6 -2 -5 -13z"/>
<path d="M7775 50 c-3 -5 -1 -10 4 -10 6 0 11 5 11 10 0 6 -2 10 -4 10 -3 0
-8 -4 -11 -10z"/>
</g>
</svg>
